<?xml version="1.0" encoding="utf-8"?>
<!-- Generator: Adobe Illustrator 16.0.0, SVG Export Plug-In . SVG Version: 6.00 Build 0)  -->
<!DOCTYPE svg PUBLIC "-//W3C//DTD SVG 1.1//EN" "http://www.w3.org/Graphics/SVG/1.1/DTD/svg11.dtd">
<svg version="1.1" id="Layer_1" xmlns="http://www.w3.org/2000/svg" xmlns:xlink="http://www.w3.org/1999/xlink" x="0px" y="0px"
	 width="667.825px" height="607.124px" viewBox="0 0 667.825 607.124" enable-background="new 0 0 667.825 607.124"
	 xml:space="preserve">
<path fill="#B9E8FF" stroke="#121212" stroke-width="5.2632" stroke-miterlimit="10" d="M168.866,594.243
	c-2.397,5.684-8.426,10.272-13.453,10.249L8.369,603.821c-5.028-0.02-7.153-4.651-4.744-10.335l112.489-265.774
	c2.403-5.678,8.429-10.264,13.451-10.243l147.052,0.67c5.028,0.02,7.147,4.652,4.741,10.33L168.866,594.243z"/>
<path fill="#009DE7" d="M163.899,585.408c-2.23,5.682-4.539,9.602-10.56,9.602l-131.69-0.023c-4.657-0.021-8.93-0.406-4.63-10.297
	L124.097,330.54c2.229-5.68,5.504-4.938,10.16-4.918l129.487,3.682c4.654,0.027,6.625,4.65,4.396,10.33L163.899,585.408z"/>
<g>
</g>
<g>
</g>
<g>
</g>
<g>
</g>
<g>
</g>
<g>
</g>
<g>
</g>
<g>
</g>
<g>
</g>
<g>
</g>
<g>
</g>
<g>
</g>
<g>
</g>
<g>
</g>
<g>
</g>
</svg>
