<?xml version="1.0" encoding="utf-8"?>
<!-- Generator: Adobe Illustrator 16.0.0, SVG Export Plug-In . SVG Version: 6.00 Build 0)  -->
<!DOCTYPE svg PUBLIC "-//W3C//DTD SVG 1.1//EN" "http://www.w3.org/Graphics/SVG/1.1/DTD/svg11.dtd">
<svg version="1.1" id="Layer_1" xmlns="http://www.w3.org/2000/svg" xmlns:xlink="http://www.w3.org/1999/xlink" x="0px" y="0px"
	 width="667.825px" height="607.124px" viewBox="0 0 667.825 607.124" enable-background="new 0 0 667.825 607.124"
	 xml:space="preserve">
<path fill="#FFFFFF" stroke="#121212" stroke-width="5.2632" stroke-miterlimit="10" d="M498.956,594.243
	c2.402,5.684,8.431,10.272,13.458,10.249l147.045-0.671c5.026-0.02,7.147-4.651,4.744-10.335L551.709,327.711
	c-2.401-5.678-8.427-10.264-13.453-10.243l-147.048,0.67c-5.027,0.02-7.149,4.652-4.741,10.33L498.956,594.243z"/>
<g>
	<polygon fill="none" points="583.231,377.553 542.925,377.553 522.335,328.415 562.641,328.415 	"/>
	<path fill="#45B1C4" d="M525.114,329.626h2.64l4.548,10.854h0.092c0.183-0.868,0.393-1.67,0.601-2.405l2.712-8.449h3.277
		l-3.402,9.552l13.41,12.957h-3.125l-11.37-11.054l-0.907,2.472l3.597,8.582h-2.64L525.114,329.626z"/>
</g>
<g>
	<polygon fill="none" points="581.41,376.356 541.104,376.356 520.514,327.217 560.819,327.217 	"/>
	<path fill="#121212" d="M523.292,328.428h2.641l4.548,10.854h0.091c0.183-0.868,0.394-1.67,0.601-2.404l2.712-8.45h3.278
		l-3.403,9.552l13.411,12.958h-3.126l-11.37-11.055l-0.906,2.472l3.596,8.583h-2.64L523.292,328.428z"/>
</g>
<g>
	<polygon fill="none" points="470.059,540.661 510.364,540.661 530.953,589.799 490.648,589.799 	"/>
	<path fill="#45B1C4" d="M528.11,588.608h-2.641l-4.548-10.854h-0.091c-0.183,0.868-0.394,1.67-0.601,2.404l-2.712,8.449h-3.277
		l3.402-9.552l-13.411-12.957h3.126l11.369,11.054l0.907-2.471l-3.596-8.583h2.64L528.11,588.608z"/>
</g>
<g>
	<polygon fill="none" points="471.88,541.857 512.183,541.857 532.774,590.996 492.469,590.996 	"/>
	<path fill="#121212" d="M529.931,589.804h-2.64l-4.549-10.854h-0.091c-0.183,0.869-0.394,1.67-0.601,2.405l-2.712,8.449h-3.278
		l3.403-9.552l-13.411-12.957h3.126l11.37,11.054l0.906-2.472l-3.596-8.582h2.64L529.931,589.804z"/>
</g>
<line fill="none" stroke="#121212" stroke-width="0.631" stroke-miterlimit="10" x1="455.049" y1="461.894" x2="599.234" y2="461.894"/>
<path fill="#FAEAAA" d="M506.622,366.566c7.771,18.55,3.824,33.587-8.819,33.587c-12.643,0-28.561-15.048-36.964-33.587
	c-13.438-29.637-3.826-33.588,8.817-33.588C482.297,332.978,493.375,334.954,506.622,366.566z"/>
<path fill="#924C23" d="M458.426,339.399c0,0,2.585,9.385,28.138,10.373l-10.598-4.938c0,0,15.573,3.951,20.823,1.481
	C496.79,346.315,478.43,319.641,458.426,339.399z"/>
<path fill="#924C23" d="M462.601,341.869c0,0,5.31,21.239-3.462,21.733c0,0-19.806-36.553,15.485-31.612"/>
<path fill="#924C23" d="M491.195,345.821l15.427,20.745c0,0-8.068-25.684-20.257-30.131"/>
<path fill="#121212" d="M474.692,362.584c0.686,1.637,0.437,2.964-0.556,2.964c-0.991,0-2.351-1.327-3.036-2.964
	c-0.687-1.637-0.439-2.964,0.553-2.964S474.005,360.948,474.692,362.584z"/>
<path fill="#121212" d="M494.792,363.311c0.686,1.636,0.437,2.964-0.555,2.964c-0.992,0-2.352-1.328-3.037-2.964
	c-0.687-1.638-0.439-2.964,0.553-2.964S494.105,361.673,494.792,363.311z"/>
<path fill="#FAEAAA" d="M464.995,368.949c2.461,3.683,2.764,7.253,0.676,7.976c-2.09,0.722-5.777-1.679-8.239-5.362
	c-2.462-3.683-2.765-7.254-0.675-7.976C458.845,362.865,462.533,365.266,464.995,368.949z"/>
<path fill="#FAEAAA" d="M514.293,371.802c0.433,3.626-1.414,5.874-4.128,5.021c-2.713-0.854-5.263-4.485-5.695-8.114
	c-0.434-3.627,1.414-5.875,4.128-5.021C511.311,364.541,513.861,368.175,514.293,371.802z"/>
<path fill="none" stroke="#000000" stroke-miterlimit="10" d="M480.754,361.838c1.597,3.809,0.084,7-3.377,7h-3.959
	c-3.462,0-7.564-3.191-9.161-7l0,0c-1.596-3.809-0.084-7,3.378-7h3.959C475.056,354.838,479.159,358.03,480.754,361.838
	L480.754,361.838z"/>
<path fill="none" stroke="#000000" stroke-miterlimit="10" d="M502.178,362.838c1.595,3.81,0.083,7-3.378,7h-3.959
	c-3.462,0-7.563-3.19-9.16-7l0,0c-1.596-3.81-0.083-7,3.377-7h3.96C496.48,355.838,500.582,359.029,502.178,362.838L502.178,362.838
	z"/>
<path fill="none" stroke="#000000" stroke-width="0.6921" stroke-miterlimit="10" d="M480.762,362.389c0,0,1.206-3.232,4.692-0.269"
	/>
<path fill="none" stroke="#000000" stroke-width="0.6921" stroke-miterlimit="10" d="M476.571,378.42c0,0,12.396,4.939,25.349,0.493
	"/>
<path fill="#FAEAAA" d="M480.363,391.756c0,0,14.532,14.325,14.873,23.71c0,0,10.771,6.421,20.652,0c0,0-8.906-8.397-8.657-21.733"
	/>
<path fill="#FAEAAA" stroke="#E78E00" stroke-width="1.3843" stroke-linecap="round" stroke-miterlimit="10" d="M490.034,391.263
	c0,0,6.766,5.433,11.017-0.494"/>
<path fill="#00114A" d="M493.202,409.539l27.774,52.357l-38.368-0.494C482.608,461.402,467.574,416.947,493.202,409.539z"/>
<polygon fill="#FFFFFF" points="493.202,409.539 505.733,416.948 511.401,409.044 517.579,418.43 499.721,421.887 "/>
<path fill="#00114A" d="M510.264,409.539l16.103,52.357l37.953-0.494C564.32,461.402,542.1,416.947,510.264,409.539z"/>
<polyline fill="#00114A" points="505.783,416.926 505.776,417.783 505.72,424.346 509.78,429.784 517.73,458.658 520.963,462.338 
	528.712,462.338 512.017,430.035 511.12,423.491 "/>
<path fill="#FAEAAA" d="M540.548,556.815c-7.773-18.551-3.824-33.588,8.817-33.588c12.645,0,28.562,15.048,36.966,33.588
	c13.437,29.637,3.825,33.587-8.818,33.587C564.872,590.402,553.794,588.426,540.548,556.815z"/>
<path fill="#924C23" d="M588.745,583.982c0,0-2.587-9.384-28.139-10.373l10.598,4.939c0,0-15.573-3.952-20.823-1.482
	C550.38,577.066,568.74,603.74,588.745,583.982z"/>
<path fill="#924C23" d="M584.568,581.511c0,0-5.31-21.239,3.463-21.732c0,0,19.806,36.553-15.486,31.611"/>
<path fill="#924C23" d="M555.974,577.56l-15.426-20.745c0,0,8.068,25.685,20.256,30.13"/>
<path fill="#121212" d="M572.478,560.795c-0.686-1.636-0.437-2.964,0.556-2.964c0.991,0,2.352,1.328,3.036,2.964
	c0.686,1.638,0.439,2.965-0.553,2.965S573.165,562.433,572.478,560.795z"/>
<path fill="#121212" d="M552.378,560.069c-0.686-1.636-0.437-2.963,0.555-2.963c0.992,0,2.351,1.327,3.037,2.963
	c0.686,1.639,0.439,2.965-0.553,2.965S553.065,561.708,552.378,560.069z"/>
<path fill="#FAEAAA" d="M582.175,554.432c-2.462-3.684-2.764-7.253-0.675-7.975c2.088-0.723,5.775,1.677,8.238,5.36
	c2.461,3.683,2.763,7.254,0.675,7.976C588.325,560.516,584.636,558.116,582.175,554.432z"/>
<path fill="#FAEAAA" d="M532.877,551.579c-0.434-3.627,1.413-5.874,4.126-5.021c2.715,0.854,5.263,4.486,5.696,8.114
	c0.434,3.626-1.415,5.875-4.127,5.021C535.86,558.84,533.31,555.206,532.877,551.579z"/>
<path fill="none" stroke="#000000" stroke-miterlimit="10" d="M583.241,560.838c1.597,3.809,0.084,7-3.378,7h-3.959
	c-3.461,0-7.562-3.191-9.158-7l0,0c-1.598-3.811-0.085-7,3.377-7h3.96C577.543,553.838,581.645,557.028,583.241,560.838
	L583.241,560.838z"/>
<path fill="none" stroke="#000000" stroke-miterlimit="10" d="M561.825,560.338c1.597,3.809,0.077,6.5-3.385,6.5h-3.959
	c-3.461,0-7.556-2.691-9.153-6.5l0,0c-1.596-3.81-0.076-6.5,3.386-6.5h3.959C556.133,553.838,560.228,556.529,561.825,560.338
	L561.825,560.338z"/>
<path fill="none" stroke="#000000" stroke-width="0.6921" stroke-miterlimit="10" d="M566.408,560.991c0,0-1.206,3.232-4.692,0.271"
	/>
<path fill="none" stroke="#000000" stroke-width="0.6921" stroke-miterlimit="10" d="M570.599,544.959
	c0,0-12.396-4.939-25.349-0.493"/>
<path fill="#FAEAAA" d="M566.805,531.624c0,0-14.531-14.324-14.872-23.71c0,0-10.771-6.419-20.651,0c0,0,8.906,8.398,8.657,21.735"
	/>
<path fill="#FAEAAA" stroke="#E78E00" stroke-width="1.3843" stroke-linecap="round" stroke-miterlimit="10" d="M557.135,532.117
	c0,0-6.765-5.432-11.015,0.495"/>
<path fill="#00114A" d="M553.968,513.842l-27.774-52.357l38.367,0.493C564.561,461.978,579.596,506.434,553.968,513.842z"/>
<polygon fill="#FFFFFF" points="553.968,513.842 541.436,506.432 535.768,514.335 529.59,504.951 547.448,501.495 "/>
<path fill="#00114A" d="M536.905,513.842l-16.101-52.357l-37.954,0.493C482.85,461.978,505.068,506.434,536.905,513.842z"/>
<polyline fill="#00114A" points="541.387,506.456 541.394,505.597 541.45,499.035 537.39,493.596 529.512,465.37 526.353,462.338 
	518.605,462.338 535.227,493.993 536.087,500.214 "/>
<g>
</g>
<g>
</g>
<g>
</g>
<g>
</g>
<g>
</g>
<g>
</g>
<g>
</g>
<g>
</g>
<g>
</g>
<g>
</g>
<g>
</g>
<g>
</g>
<g>
</g>
<g>
</g>
<g>
</g>
</svg>
