<?xml version="1.0" encoding="utf-8"?>
<!-- Generator: Adobe Illustrator 16.0.0, SVG Export Plug-In . SVG Version: 6.00 Build 0)  -->
<!DOCTYPE svg PUBLIC "-//W3C//DTD SVG 1.1//EN" "http://www.w3.org/Graphics/SVG/1.1/DTD/svg11.dtd">
<svg version="1.1" id="Layer_1" xmlns="http://www.w3.org/2000/svg" xmlns:xlink="http://www.w3.org/1999/xlink" x="0px" y="0px"
	 width="667.825px" height="607.124px" viewBox="0 0 667.825 607.124" enable-background="new 0 0 667.825 607.124"
	 xml:space="preserve">
<path fill="#B9E8FF" stroke="#121212" stroke-width="5.2632" stroke-miterlimit="10" d="M424.1,594.243
	c-2.404,5.684-8.434,10.272-13.452,10.249l-147.049-0.671c-5.028-0.02-7.153-4.651-4.748-10.335l112.492-265.774
	c2.405-5.678,8.434-10.264,13.456-10.243l147.045,0.67c5.027,0.02,7.149,4.652,4.744,10.33L424.1,594.243z"/>
<path fill="#009DE7" d="M417.899,587.408c-2.23,5.682-4.539,9.602-10.56,9.602l-131.69-0.023c-4.657-0.021-8.93-0.406-4.63-10.297
	L378.097,332.54c2.229-5.68,5.504-4.938,10.16-4.918l129.487,3.682c4.654,0.027,6.625,4.65,4.396,10.33L417.899,587.408z"/>
<g>
</g>
<g>
</g>
<g>
</g>
<g>
</g>
<g>
</g>
<g>
</g>
<g>
</g>
<g>
</g>
<g>
</g>
<g>
</g>
<g>
</g>
<g>
</g>
<g>
</g>
<g>
</g>
<g>
</g>
</svg>
