<?xml version="1.0" encoding="utf-8"?>
<!-- Generator: Adobe Illustrator 16.0.0, SVG Export Plug-In . SVG Version: 6.00 Build 0)  -->
<!DOCTYPE svg PUBLIC "-//W3C//DTD SVG 1.1//EN" "http://www.w3.org/Graphics/SVG/1.1/DTD/svg11.dtd">
<svg version="1.1" id="Layer_1" xmlns="http://www.w3.org/2000/svg" xmlns:xlink="http://www.w3.org/1999/xlink" x="0px" y="0px"
	 width="667.825px" height="607.124px" viewBox="0 0 667.825 607.124" enable-background="new 0 0 667.825 607.124"
	 xml:space="preserve">
<path fill="#FFFFFF" stroke="#121212" stroke-width="5.2632" stroke-miterlimit="10" d="M366.436,279.408
	c2.401,5.682,8.426,10.271,13.452,10.249l147.049-0.671c5.028-0.021,7.149-4.651,4.744-10.335L419.185,12.876
	c-2.405-5.679-8.43-10.264-13.454-10.245L258.684,3.303c-5.027,0.027-7.149,4.651-4.744,10.33L366.436,279.408z"/>
<g>
	<g>
		<path fill="#DC8DAF" d="M417.01,41.611c-3.012-0.764-6.006-1.625-8.676-2.489c-0.481-0.16-0.963-0.32-1.347-0.318
			c-4.796-0.175-10.459-3.971-13.45-10.979c-2.976-6.974-1.002-11.479,4.361-11.499c5.392-0.021,10.854,4.55,13.597,10.977
			c2.384,5.587,1.557,9.18-1.206,10.453l0.055,0.129c2.209,0.541,4.58,1.049,6.397,1.366L417.01,41.611z M408.84,27.443
			c-1.86-4.36-5.838-8.84-10.052-8.824c-4.331,0.017-4.579,4.417-2.537,9.132c1.94,4.618,6.046,8.774,10.054,8.758
			C410.401,36.495,410.962,32.417,408.84,27.443z"/>
	</g>
</g>
<polyline fill="#4EB194" stroke="#121212" stroke-width="2.0138" stroke-miterlimit="10" points="401.225,145.935 397.692,99.869 
	441.26,115.29 443.35,146.117 "/>
<path fill="#FAEAAA" d="M391.797,144.586c0,0,4.222-9.372,17.899-7.693l6.123,1.016l0.57,2.077c0,0-7.09-0.318-11.047,0.043
	l-2.082,1.048c0,0,9.133,0.658,14.25,3.755l2.188,0.684l-28.739,0.806L391.797,144.586z"/>
<g>
	<g>
		<path fill="#121212" d="M415.057,40.428c-3.013-0.765-6.007-1.626-8.677-2.489c-0.481-0.16-0.963-0.32-1.347-0.319
			c-4.797-0.174-10.459-3.97-13.449-10.978c-2.977-6.975-1.002-11.479,4.359-11.5c5.393-0.021,10.855,4.551,13.598,10.978
			c2.384,5.586,1.557,9.181-1.206,10.453l0.055,0.129c2.209,0.541,4.58,1.049,6.397,1.366L415.057,40.428z M406.885,26.26
			c-1.859-4.36-5.838-8.84-10.051-8.824c-4.331,0.017-4.579,4.417-2.537,9.132c1.94,4.618,6.046,8.775,10.053,8.759
			C408.446,35.311,409.008,31.233,406.885,26.26z"/>
	</g>
</g>
<path fill="#FAEAAA" d="M344.835,40.893c0,0,25.651,32.173,20.151,45.965c0,0-18.424,0.072-8.614,15.787l-6.689,0.888
	c0,0-36.712-45.302-42.027-57.761l19.403-13.415l16.393,8.972"/>
<path fill="#D05F00" d="M305.587,27.708c0,0,7.121-15.519,37.094-15.206l-7.17,17.241c0,0,11.076-3.486,29.428,5.479l-15.755,2.643
	c0,0,8.705,3.839,18.226,13.269l-15.262-0.801l-5.309-6.004c0,0-15.824-14.998-26.265,0.103c0,0,13.692,27.486,3.734,26.234
	C324.309,70.665,295.306,44.099,305.587,27.708z"/>
<path fill="#FAEAAA" d="M328.095,62.188c2.548,3.181,3.231,6.528,1.529,7.48c-1.702,0.949-5.146-0.857-7.692-4.037
	c-2.546-3.18-3.23-6.529-1.529-7.479C322.107,57.201,325.55,59.009,328.095,62.188z"/>
<path fill="#D71F27" d="M359.97,74.184c0.455,1.067-1.193,1.94-3.683,1.95c-2.49,0.01-4.877-0.848-5.333-1.915
	c-0.455-1.069,1.193-1.942,3.683-1.952S359.514,73.115,359.97,74.184z"/>
<polyline fill="none" stroke="#000000" stroke-width="1.3425" stroke-miterlimit="10" points="342.9,51.659 354.694,63.661 
	350.882,66.688 "/>
<path d="M336.719,51.898c0.86,2.017,0.77,3.653-0.206,3.658c-0.975,0.004-2.461-1.627-3.322-3.644
	c-0.86-2.017-0.769-3.655,0.205-3.659C334.372,48.25,335.859,49.881,336.719,51.898z"/>
<path d="M349.533,51.848c0.859,2.018,0.768,3.655-0.205,3.659c-0.975,0.004-2.461-1.627-3.322-3.645
	c-0.859-2.017-0.77-3.653,0.206-3.658C347.185,48.199,348.671,49.831,349.533,51.848z"/>
<path fill="#97CBE2" d="M344.039,99.417l13.878,1.237l5.993,9.443c0,0,7.586,8.576,25.444,20.985c0,0,3.48,4.474-1.193,10.086
	l0.073,5.693l-30.182,0.117c0,0-21.189-31.256-12.856-34.73C345.196,112.25,351.256,109.98,344.039,99.417z"/>
<path fill="none" stroke="#121212" stroke-width="2.6851" stroke-miterlimit="10" d="M357.896,146.61
	c0,0-21.299-28.747-12.778-34.546c0,0,6.249-1.918-1.079-12.647"/>
<path fill="none" stroke="#121212" stroke-width="2.6851" stroke-miterlimit="10" d="M357.917,100.655
	c0,0,6.283,12.883,24.718,25.721c0,0,11.189,5.98,7.092,12.021l-2.036,2.59l1.992,5.585"/>
<line fill="none" stroke="#121212" stroke-width="0.612" stroke-miterlimit="10" x1="326.191" y1="146.595" x2="466.188" y2="146.049"/>
<g>
	<g>
		<path fill="#DC8DAF" d="M375.797,250.823c3.012,0.766,6.006,1.626,8.676,2.489c0.481,0.16,0.963,0.32,1.347,0.318
			c4.797,0.175,10.46,3.971,13.45,10.979c2.976,6.975,1.002,11.479-4.36,11.5c-5.393,0.021-10.855-4.551-13.598-10.978
			c-2.384-5.587-1.557-9.181,1.206-10.453l-0.055-0.129c-2.209-0.541-4.58-1.049-6.397-1.366L375.797,250.823z M383.967,264.992
			c1.86,4.359,5.839,8.84,10.052,8.823c4.331-0.017,4.579-4.416,2.538-9.132c-1.941-4.618-6.047-8.774-10.055-8.759
			C382.407,255.941,381.845,260.018,383.967,264.992z"/>
	</g>
</g>
<polyline fill="#4EB194" stroke="#121212" stroke-width="2.0138" stroke-miterlimit="10" points="391.623,146.527 395.155,192.593 
	351.587,177.172 349.498,146.343 "/>
<path fill="#FAEAAA" d="M401.048,147.876c0,0-4.221,9.371-17.897,7.692l-6.125-1.016l-0.569-2.077c0,0,7.091,0.318,11.046-0.043
	l2.082-1.047c0,0-9.132-0.659-14.248-3.755l-2.188-0.685l28.739-0.806L401.048,147.876z"/>
<g>
	<g>
		<path fill="#121212" d="M377.752,252.009c3.012,0.765,6.006,1.625,8.677,2.488c0.481,0.16,0.963,0.32,1.347,0.318
			c4.796,0.176,10.459,3.97,13.449,10.978c2.977,6.975,1.002,11.479-4.36,11.5c-5.392,0.021-10.854-4.55-13.597-10.977
			c-2.385-5.587-1.557-9.181,1.206-10.453l-0.056-0.13c-2.208-0.541-4.579-1.049-6.396-1.365L377.752,252.009z M385.922,266.176
			c1.861,4.36,5.839,8.841,10.053,8.824c4.331-0.017,4.578-4.417,2.537-9.132c-1.941-4.618-6.047-8.774-10.054-8.759
			C384.363,257.125,383.801,261.204,385.922,266.176z"/>
	</g>
</g>
<path fill="#FAEAAA" d="M448.011,251.569c0,0-25.651-32.173-20.15-45.964c0,0,18.424-0.072,8.614-15.789l6.688-0.887
	c0,0,36.713,45.303,42.028,57.761l-19.403,13.414l-16.392-8.972"/>
<path fill="#D05F00" d="M487.259,264.754c0,0-7.12,15.519-37.093,15.206l7.17-17.241c0,0-11.076,3.485-29.43-5.479l15.756-2.645
	c0,0-8.705-3.837-18.227-13.267l15.263,0.8l5.31,6.004c0,0,15.824,14.999,26.264-0.103c0,0-13.692-27.486-3.733-26.233
	C468.539,221.797,497.542,248.364,487.259,264.754z"/>
<path fill="#FAEAAA" d="M464.752,230.275c-2.549-3.182-3.231-6.528-1.53-7.48c1.703-0.95,5.146,0.856,7.692,4.037
	c2.546,3.179,3.23,6.528,1.529,7.479C470.741,235.261,467.296,233.453,464.752,230.275z"/>
<path fill="#D71F27" d="M432.877,218.279c-0.456-1.066,1.192-1.94,3.682-1.95c2.49-0.01,4.878,0.847,5.333,1.915
	c0.456,1.067-1.193,1.941-3.683,1.951C435.719,220.205,433.333,219.347,432.877,218.279z"/>
<polyline fill="none" stroke="#000000" stroke-width="1.3425" stroke-miterlimit="10" points="449.948,240.802 438.153,228.801 
	441.964,225.774 "/>
<path d="M456.128,240.564c-0.86-2.017-0.77-3.655,0.206-3.659c0.975-0.004,2.46,1.63,3.321,3.645c0.86,2.018,0.77,3.656-0.206,3.659
	C458.476,244.212,456.988,242.581,456.128,240.564z"/>
<path d="M443.315,240.613c-0.86-2.016-0.768-3.653,0.204-3.658c0.975-0.003,2.462,1.629,3.322,3.646
	c0.86,2.018,0.77,3.654-0.205,3.657C445.663,244.262,444.176,242.63,443.315,240.613z"/>
<path fill="#97CBE2" d="M448.808,193.043l-13.878-1.236l-5.993-9.444c0,0-7.585-8.575-25.445-20.984c0,0-3.224-3.876,1.449-9.487
	l0.183-5.096l30.182-0.117c0,0,20.936,30.658,12.602,34.132C447.907,180.81,441.59,182.48,448.808,193.043z"/>
<path fill="none" stroke="#121212" stroke-width="2.6851" stroke-miterlimit="10" d="M434.952,145.851
	c0,0,21.298,28.747,12.778,34.547c0,0-6.249,1.917,1.078,12.646"/>
<path fill="none" stroke="#121212" stroke-width="2.6851" stroke-miterlimit="10" d="M434.93,191.807
	c0,0-6.283-12.884-24.718-25.721c0,0-11.19-5.981-7.091-12.021l2.035-2.591l-1.993-5.584"/>
<line fill="none" stroke="#121212" stroke-width="0.612" stroke-miterlimit="10" x1="466.657" y1="145.866" x2="326.66" y2="146.413"/>
<g>
</g>
<g>
</g>
<g>
</g>
<g>
</g>
<g>
</g>
<g>
</g>
<g>
</g>
<g>
</g>
<g>
</g>
<g>
</g>
<g>
</g>
<g>
</g>
<g>
</g>
<g>
</g>
<g>
</g>
</svg>
