<?xml version="1.0" encoding="utf-8"?>
<!-- Generator: Adobe Illustrator 16.0.0, SVG Export Plug-In . SVG Version: 6.00 Build 0)  -->
<!DOCTYPE svg PUBLIC "-//W3C//DTD SVG 1.1//EN" "http://www.w3.org/Graphics/SVG/1.1/DTD/svg11.dtd">
<svg version="1.1" id="Layer_1" xmlns="http://www.w3.org/2000/svg" xmlns:xlink="http://www.w3.org/1999/xlink" x="0px" y="0px"
	 width="667.825px" height="607.124px" viewBox="0 0 667.825 607.124" enable-background="new 0 0 667.825 607.124"
	 xml:space="preserve">
<path fill="#B9E8FF" stroke="#121212" stroke-width="5.2632" stroke-miterlimit="10" d="M291.577,279.408
	c-2.406,5.682-8.43,10.271-13.454,10.249l-147.053-0.671c-5.026-0.021-7.149-4.651-4.744-10.335L238.823,12.876
	c2.405-5.679,8.429-10.264,13.453-10.245l147.048,0.671c5.023,0.027,7.149,4.651,4.745,10.33L291.577,279.408z"/>
<path fill="#009DE7" d="M285.899,271.408c-2.23,5.682-4.539,9.602-10.56,9.602l-131.69-0.023c-4.657-0.021-8.93-0.406-4.63-10.297
	l107.078-254.15c2.229-5.679,5.504-4.937,10.16-4.917l129.487,3.682c4.654,0.027,6.625,4.651,4.396,10.33L285.899,271.408z"/>
<g>
</g>
<g>
</g>
<g>
</g>
<g>
</g>
<g>
</g>
<g>
</g>
<g>
</g>
<g>
</g>
<g>
</g>
<g>
</g>
<g>
</g>
<g>
</g>
<g>
</g>
<g>
</g>
<g>
</g>
</svg>
