<?xml version="1.0" encoding="utf-8"?>
<!-- Generator: Adobe Illustrator 16.0.0, SVG Export Plug-In . SVG Version: 6.00 Build 0)  -->
<!DOCTYPE svg PUBLIC "-//W3C//DTD SVG 1.1//EN" "http://www.w3.org/Graphics/SVG/1.1/DTD/svg11.dtd">
<svg version="1.1" id="Layer_1" xmlns="http://www.w3.org/2000/svg" xmlns:xlink="http://www.w3.org/1999/xlink" x="0px" y="0px"
	 width="667.825px" height="607.124px" viewBox="0 0 667.825 607.124" enable-background="new 0 0 667.825 607.124"
	 xml:space="preserve">
<path fill="#FFFFFF" stroke="#121212" stroke-width="5.2632" stroke-miterlimit="10" d="M243.726,594.243
	c2.405,5.684,8.433,10.272,13.453,10.249l147.048-0.671c5.027-0.02,7.153-4.651,4.744-10.335L296.482,327.711
	c-2.404-5.678-8.433-10.264-13.456-10.243l-147.045,0.67c-5.026,0.02-7.149,4.652-4.744,10.33L243.726,594.243z"/>
<line fill="none" stroke="#121212" stroke-width="0.506" stroke-miterlimit="10" x1="198.906" y1="450.289" x2="314.2" y2="450.227"/>
<g>
	<g>
		<path fill="#7BC5E1" d="M259.236,573.087l-2.914,0.002l-6.789-16.709c-2.694-6.633-0.574-8.673,3.311-8.675
			c1.072,0,2.484,0.258,3.356,0.591l0.633,2.631c-0.708-0.259-1.669-0.48-2.641-0.479c-2.612,0.001-3.626,1.298-1.64,6.189
			L259.236,573.087z"/>
	</g>
</g>
<g>
	<g>
		<path fill="#121212" d="M262.626,574.469l-2.914,0.002l-6.789-16.709c-2.694-6.633-0.574-8.673,3.311-8.675
			c1.071-0.001,2.483,0.257,3.356,0.591l0.633,2.63c-0.709-0.258-1.67-0.479-2.641-0.479c-2.613,0.001-3.627,1.298-1.64,6.189
			L262.626,574.469z"/>
	</g>
</g>
<line fill="none" stroke="#121212" stroke-width="0.506" stroke-miterlimit="10" x1="314.232" y1="449.986" x2="198.939" y2="450.047"/>
<g>
	<g>
		<path fill="#7BC5E1" d="M279.292,330.448l2.914-0.002l6.789,16.71c2.694,6.633,0.574,8.672-3.311,8.674
			c-1.071,0.001-2.483-0.257-3.355-0.59l-0.633-2.631c0.708,0.258,1.669,0.48,2.641,0.479c2.612-0.001,3.626-1.298,1.639-6.189
			L279.292,330.448z"/>
	</g>
</g>
<g>
	<g>
		<path fill="#121212" d="M276.326,329.212l2.914-0.002l6.788,16.71c2.694,6.633,0.574,8.672-3.311,8.674
			c-1.071,0-2.483-0.258-3.355-0.591l-0.633-2.631c0.708,0.259,1.669,0.48,2.641,0.48c2.612-0.002,3.626-1.299,1.639-6.189
			L276.326,329.212z"/>
	</g>
</g>
<path fill="#FFDD8B" d="M190.935,365.157c0,0-2.349-7.679,8.577,2.13l4.604,13.226C204.117,380.512,197.348,380.943,190.935,365.157
	z"/>
<path fill="#FFDD8B" d="M194.502,351.368c0,0,7.776,28.792,12.046,34.474c0,0,8.909,12.173,23.28,18.606
	c0,0,6.283,3.406,10.777-0.006c0,0,6.164-4.93,5.646-19.76l-12.756-32.2L194.502,351.368z"/>
<path fill="none" stroke="#121212" stroke-width="1.6751" stroke-linecap="round" stroke-miterlimit="10" d="M204.779,370.924
	c0,0,4.702-2.893,12.116-0.729"/>
<path fill="none" stroke="#121212" stroke-width="1.6751" stroke-linecap="round" stroke-miterlimit="10" d="M221.858,369.571
	c0,0,4.703-2.893,12.117-0.73"/>
<path fill="#121212" d="M211.931,371.645c0.404,0.996,0.075,1.807-0.735,1.807c-0.813,0-1.8-0.809-2.204-1.806
	c-0.405-0.997-0.076-1.807,0.735-1.809C210.539,369.837,211.526,370.647,211.931,371.645z"/>
<path fill="#121212" d="M229.01,370.29c0.405,0.998,0.075,1.807-0.734,1.807c-0.813,0-1.801-0.808-2.204-1.805
	c-0.406-0.999-0.077-1.807,0.734-1.807C227.617,368.483,228.606,369.292,229.01,370.29z"/>
<path fill="none" stroke="#121212" stroke-width="1.6751" stroke-linecap="round" stroke-miterlimit="10" d="M222.647,390.429
	c0,0,9.322-0.368,12.588-0.37"/>
<path fill="#121212" d="M202.636,378.514c0,0-6.487-22.399-7.416-27.098c0,0,24.03,10.104,36.541,0.703l9.935,22.037
	c0,0-3.469-20.596-13.344-29.624l0.408,1.807c0,0-5.188-7.947-15.214-10.11l3.135,2.89c0,0-6.366-3.61-11.805-2.523
	c0,0-7.377-2.886-13.699,3.261c0,0-1.552,1.807-4.1,0.363c0,0,2.38,5.06,5.614,5.778c0,0-3.234-0.719-4.473-2.165
	C188.219,343.833,191.379,360.453,202.636,378.514z"/>
<path fill="#FFDD8B" d="M215.363,392.963l4.581,17.705l17.744,8.301c0,0-9.252-8.307-9.443-18.425l-13.174-8.306"/>
<path fill="#3D3F3F" d="M219.388,410.84c0,0,24.686,21.215,37.615,39.367l-42.251,0.023c0,0-13.913-27.317-7.297-32.741
	C207.456,417.49,217.143,421.544,219.388,410.84z"/>
<path fill="#3D3F3F" d="M237.315,416.439c0,0,23.243,21.59,29.865,33.874l16.44-0.292c0,0-16.496-21.312-33.276-32.866
	c0,0-3.64-2.527-4.244,0.002C246.1,417.157,243.714,419.327,237.315,416.439z"/>
<polygon fill="#FFFFFF" points="217.805,411.029 224.097,430.539 240.476,425.833 218.443,407.776 "/>
<polyline fill="#FFFFFF" points="237.315,416.439 257.8,429.075 244.984,427.276 236.694,415.715 "/>
<path fill="#FFBC5C" d="M218.645,368.868c0,0,2.996,9.039,0.879,15.499c0,0,2.739,2.58,8.521,4.301c0,0,3.56,0.428,4.335-5.17
	c0,0-8.719-6.451-12.555-15.059"/>
<path fill="#FFDD8B" d="M322.953,535.366c0,0,2.348,7.68-8.579-2.128l-4.603-13.225C309.771,520.013,316.54,519.581,322.953,535.366
	z"/>
<path fill="#FFDD8B" d="M319.387,549.158c0,0-7.778-28.793-12.045-34.475c0,0-8.912-12.174-23.284-18.605
	c0,0-6.285-3.408-10.776,0.005c0,0-6.163,4.929-5.646,19.759l12.753,32.2L319.387,549.158z"/>
<path fill="none" stroke="#121212" stroke-width="1.6751" stroke-linecap="round" stroke-miterlimit="10" d="M309.108,529.599
	c0,0-4.704,2.894-12.114,0.729"/>
<path fill="none" stroke="#121212" stroke-width="1.6751" stroke-linecap="round" stroke-miterlimit="10" d="M292.028,530.954
	c0,0-4.702,2.893-12.115,0.729"/>
<path fill="#121212" d="M301.958,528.879c-0.407-0.997-0.077-1.807,0.733-1.808c0.813,0,1.797,0.809,2.205,1.807
	c0.403,0.998,0.076,1.806-0.736,1.807C303.35,530.686,302.362,529.877,301.958,528.879z"/>
<path fill="#121212" d="M284.877,530.235c-0.406-0.998-0.076-1.807,0.734-1.807c0.813-0.001,1.799,0.806,2.205,1.805
	c0.404,0.998,0.075,1.808-0.737,1.808C286.269,532.042,285.283,531.233,284.877,530.235z"/>
<path fill="none" stroke="#121212" stroke-width="1.6751" stroke-linecap="round" stroke-miterlimit="10" d="M291.241,510.096
	c0,0-9.323,0.365-12.59,0.367"/>
<path fill="#121212" d="M311.251,522.009c0,0,6.486,22.398,7.416,27.098c0,0-24.029-10.104-36.541-0.703l-9.935-22.037
	c0,0,3.469,20.596,13.343,29.624l-0.407-1.807c0,0,5.188,7.948,15.213,10.11l-3.135-2.89c0,0,6.367,3.611,11.803,2.522
	c0,0,7.381,2.888,13.702-3.259c0,0,1.553-1.809,4.099-0.361c0,0-2.379-5.061-5.613-5.782c0,0,3.234,0.722,4.473,2.166
	C325.668,556.691,322.508,540.072,311.251,522.009z"/>
<path fill="#FFDD8B" d="M298.523,507.562l-4.58-17.705l-17.745-8.301c0,0,9.254,8.305,9.444,18.423l13.175,8.305"/>
<path fill="#3D3F3F" d="M294.475,489.629c0,0-24.709-21.27-37.635-39.422l42.252-0.023c0,0,13.922,27.346,7.307,32.77
	C306.399,482.954,296.723,478.925,294.475,489.629z"/>
<path fill="#3D3F3F" d="M276.573,484.085c0,0-21.931-21.143-28.553-33.425l-17.753-0.156c0,0,16.497,21.312,33.276,32.864
	c0,0,3.64,2.528,4.245-0.001C267.789,483.368,270.174,481.197,276.573,484.085z"/>
<polygon fill="#FFFFFF" points="296.083,489.495 289.79,469.984 273.41,474.692 295.445,492.748 "/>
<polyline fill="#FFFFFF" points="276.573,484.085 256.088,471.448 268.903,473.249 277.192,484.808 "/>
<path fill="#FFBC5C" d="M295.242,531.655c0,0-2.993-9.039-0.876-15.497c0,0-2.743-2.582-8.523-4.304c0,0-3.561-0.425-4.336,5.172
	c0,0,8.719,6.452,12.555,15.061"/>
<line fill="none" stroke="#121212" stroke-width="0.506" stroke-miterlimit="10" x1="199.654" y1="450.539" x2="314.948" y2="450.476"/>
<g>
</g>
<g>
</g>
<g>
</g>
<g>
</g>
<g>
</g>
<g>
</g>
<g>
</g>
<g>
</g>
<g>
</g>
<g>
</g>
<g>
</g>
<g>
</g>
<g>
</g>
<g>
</g>
<g>
</g>
</svg>
