<?xml version="1.0" encoding="utf-8"?>
<!-- Generator: Adobe Illustrator 16.0.0, SVG Export Plug-In . SVG Version: 6.00 Build 0)  -->
<!DOCTYPE svg PUBLIC "-//W3C//DTD SVG 1.1//EN" "http://www.w3.org/Graphics/SVG/1.1/DTD/svg11.dtd">
<svg version="1.1" id="Layer_1" xmlns="http://www.w3.org/2000/svg" xmlns:xlink="http://www.w3.org/1999/xlink" x="0px" y="0px"
	 width="667.825px" height="607.124px" viewBox="0 0 667.825 607.124" enable-background="new 0 0 667.825 607.124"
	 xml:space="preserve">
<path fill="#B9E8FF" stroke="#121212" stroke-width="5.2632" stroke-miterlimit="10" d="M168.866,594.243
	c-2.397,5.684-8.426,10.272-13.453,10.249L8.369,603.821c-5.028-0.02-7.153-4.651-4.744-10.335l112.489-265.774
	c2.403-5.678,8.429-10.264,13.451-10.243l147.052,0.67c5.028,0.02,7.147,4.652,4.741,10.33L168.866,594.243z"/>
<path fill="#009DE7" d="M163.899,585.408c-2.23,5.682-4.539,9.602-10.56,9.602l-131.69-0.023c-4.657-0.021-8.93-0.406-4.63-10.297
	L124.097,330.54c2.229-5.68,5.504-4.938,10.16-4.918l129.487,3.682c4.654,0.027,6.625,4.65,4.396,10.33L163.899,585.408z"/>
<path fill="#FFFFFF" stroke="#121212" stroke-width="5.2632" stroke-miterlimit="10" d="M243.726,594.243
	c2.405,5.684,8.433,10.272,13.453,10.249l147.048-0.671c5.027-0.02,7.153-4.651,4.744-10.335L296.482,327.711
	c-2.404-5.678-8.433-10.264-13.456-10.243l-147.045,0.67c-5.026,0.02-7.149,4.652-4.744,10.33L243.726,594.243z"/>
<path fill="#B9E8FF" stroke="#121212" stroke-width="5.2632" stroke-miterlimit="10" d="M291.577,279.408
	c-2.406,5.682-8.43,10.271-13.454,10.249l-147.053-0.671c-5.026-0.021-7.149-4.651-4.744-10.335L238.823,12.876
	c2.405-5.679,8.429-10.264,13.453-10.245l147.048,0.671c5.023,0.027,7.149,4.651,4.745,10.33L291.577,279.408z"/>
<path fill="#009DE7" d="M285.899,271.408c-2.23,5.682-4.539,9.602-10.56,9.602l-131.69-0.023c-4.657-0.021-8.93-0.406-4.63-10.297
	l107.078-254.15c2.229-5.679,5.504-4.937,10.16-4.917l129.487,3.682c4.654,0.027,6.625,4.651,4.396,10.33L285.899,271.408z"/>
<path fill="#FFFFFF" stroke="#121212" stroke-width="5.2632" stroke-miterlimit="10" d="M366.436,279.408
	c2.401,5.682,8.426,10.271,13.452,10.249l147.049-0.671c5.028-0.021,7.149-4.651,4.744-10.335L419.185,12.876
	c-2.405-5.679-8.43-10.264-13.454-10.245L258.684,3.303c-5.027,0.027-7.149,4.651-4.744,10.33L366.436,279.408z"/>
<line fill="#FFFFFF" stroke="#121212" stroke-width="5" stroke-miterlimit="10" x1="107.768" y1="302.838" x2="548.768" y2="302.838"/>
<g>
	<g>
		<path fill="#DC8DAF" d="M417.01,41.611c-3.012-0.764-6.006-1.625-8.676-2.489c-0.481-0.16-0.963-0.32-1.347-0.318
			c-4.796-0.175-10.459-3.971-13.45-10.979c-2.976-6.974-1.002-11.479,4.361-11.499c5.392-0.021,10.854,4.55,13.597,10.977
			c2.384,5.587,1.557,9.18-1.206,10.453l0.055,0.129c2.209,0.541,4.58,1.049,6.397,1.366L417.01,41.611z M408.84,27.443
			c-1.86-4.36-5.838-8.84-10.052-8.824c-4.331,0.017-4.579,4.417-2.537,9.132c1.94,4.618,6.046,8.774,10.054,8.758
			C410.401,36.495,410.962,32.417,408.84,27.443z"/>
	</g>
</g>
<polyline fill="#4EB194" stroke="#121212" stroke-width="2.0138" stroke-miterlimit="10" points="401.225,145.935 397.692,99.869 
	441.26,115.29 443.35,146.117 "/>
<path fill="#FAEAAA" d="M391.797,144.586c0,0,4.222-9.372,17.899-7.693l6.123,1.016l0.57,2.077c0,0-7.09-0.318-11.047,0.043
	l-2.082,1.048c0,0,9.133,0.658,14.25,3.755l2.188,0.684l-28.739,0.806L391.797,144.586z"/>
<g>
	<g>
		<path fill="#121212" d="M415.057,40.428c-3.013-0.765-6.007-1.626-8.677-2.489c-0.481-0.16-0.963-0.32-1.347-0.319
			c-4.797-0.174-10.459-3.97-13.449-10.978c-2.977-6.975-1.002-11.479,4.359-11.5c5.393-0.021,10.855,4.551,13.598,10.978
			c2.384,5.586,1.557,9.181-1.206,10.453l0.055,0.129c2.209,0.541,4.58,1.049,6.397,1.366L415.057,40.428z M406.885,26.26
			c-1.859-4.36-5.838-8.84-10.051-8.824c-4.331,0.017-4.579,4.417-2.537,9.132c1.94,4.618,6.046,8.775,10.053,8.759
			C408.446,35.311,409.008,31.233,406.885,26.26z"/>
	</g>
</g>
<path fill="#FAEAAA" d="M344.835,40.893c0,0,25.651,32.173,20.151,45.965c0,0-18.424,0.072-8.614,15.787l-6.689,0.888
	c0,0-36.712-45.302-42.027-57.761l19.403-13.415l16.393,8.972"/>
<path fill="#D05F00" d="M305.587,27.708c0,0,7.121-15.519,37.094-15.206l-7.17,17.241c0,0,11.076-3.486,29.428,5.479l-15.755,2.643
	c0,0,8.705,3.839,18.226,13.269l-15.262-0.801l-5.309-6.004c0,0-15.824-14.998-26.265,0.103c0,0,13.692,27.486,3.734,26.234
	C324.309,70.665,295.306,44.099,305.587,27.708z"/>
<path fill="#FAEAAA" d="M328.095,62.188c2.548,3.181,3.231,6.528,1.529,7.48c-1.702,0.949-5.146-0.857-7.692-4.037
	c-2.546-3.18-3.23-6.529-1.529-7.479C322.107,57.201,325.55,59.009,328.095,62.188z"/>
<path fill="#D71F27" d="M359.97,74.184c0.455,1.067-1.193,1.94-3.683,1.95c-2.49,0.01-4.877-0.848-5.333-1.915
	c-0.455-1.069,1.193-1.942,3.683-1.952S359.514,73.115,359.97,74.184z"/>
<polyline fill="none" stroke="#000000" stroke-width="1.3425" stroke-miterlimit="10" points="342.9,51.659 354.694,63.661 
	350.882,66.688 "/>
<path d="M336.719,51.898c0.86,2.017,0.77,3.653-0.206,3.658c-0.975,0.004-2.461-1.627-3.322-3.644
	c-0.86-2.017-0.769-3.655,0.205-3.659C334.372,48.25,335.859,49.881,336.719,51.898z"/>
<path d="M349.533,51.848c0.859,2.018,0.768,3.655-0.205,3.659c-0.975,0.004-2.461-1.627-3.322-3.645
	c-0.859-2.017-0.77-3.653,0.206-3.658C347.185,48.199,348.671,49.831,349.533,51.848z"/>
<path fill="#97CBE2" d="M344.039,99.417l13.878,1.237l5.993,9.443c0,0,7.586,8.576,25.444,20.985c0,0,3.48,4.474-1.193,10.086
	l0.073,5.693l-30.182,0.117c0,0-21.189-31.256-12.856-34.73C345.196,112.25,351.256,109.98,344.039,99.417z"/>
<path fill="none" stroke="#121212" stroke-width="2.6851" stroke-miterlimit="10" d="M357.896,146.61
	c0,0-21.299-28.747-12.778-34.546c0,0,6.249-1.918-1.079-12.647"/>
<path fill="none" stroke="#121212" stroke-width="2.6851" stroke-miterlimit="10" d="M357.917,100.655
	c0,0,6.283,12.883,24.718,25.721c0,0,11.189,5.98,7.092,12.021l-2.036,2.59l1.992,5.585"/>
<line fill="none" stroke="#121212" stroke-width="0.612" stroke-miterlimit="10" x1="326.191" y1="146.595" x2="466.188" y2="146.049"/>
<g>
	<g>
		<path fill="#DC8DAF" d="M375.797,250.823c3.012,0.766,6.006,1.626,8.676,2.489c0.481,0.16,0.963,0.32,1.347,0.318
			c4.797,0.175,10.46,3.971,13.45,10.979c2.976,6.975,1.002,11.479-4.36,11.5c-5.393,0.021-10.855-4.551-13.598-10.978
			c-2.384-5.587-1.557-9.181,1.206-10.453l-0.055-0.129c-2.209-0.541-4.58-1.049-6.397-1.366L375.797,250.823z M383.967,264.992
			c1.86,4.359,5.839,8.84,10.052,8.823c4.331-0.017,4.579-4.416,2.538-9.132c-1.941-4.618-6.047-8.774-10.055-8.759
			C382.407,255.941,381.845,260.018,383.967,264.992z"/>
	</g>
</g>
<polyline fill="#4EB194" stroke="#121212" stroke-width="2.0138" stroke-miterlimit="10" points="391.623,146.527 395.155,192.593 
	351.587,177.172 349.498,146.343 "/>
<path fill="#FAEAAA" d="M401.048,147.876c0,0-4.221,9.371-17.897,7.692l-6.125-1.016l-0.569-2.077c0,0,7.091,0.318,11.046-0.043
	l2.082-1.047c0,0-9.132-0.659-14.248-3.755l-2.188-0.685l28.739-0.806L401.048,147.876z"/>
<g>
	<g>
		<path fill="#121212" d="M377.752,252.009c3.012,0.765,6.006,1.625,8.677,2.488c0.481,0.16,0.963,0.32,1.347,0.318
			c4.796,0.176,10.459,3.97,13.449,10.978c2.977,6.975,1.002,11.479-4.36,11.5c-5.392,0.021-10.854-4.55-13.597-10.977
			c-2.385-5.587-1.557-9.181,1.206-10.453l-0.056-0.13c-2.208-0.541-4.579-1.049-6.396-1.365L377.752,252.009z M385.922,266.176
			c1.861,4.36,5.839,8.841,10.053,8.824c4.331-0.017,4.578-4.417,2.537-9.132c-1.941-4.618-6.047-8.774-10.054-8.759
			C384.363,257.125,383.801,261.204,385.922,266.176z"/>
	</g>
</g>
<path fill="#FAEAAA" d="M448.011,251.569c0,0-25.651-32.173-20.15-45.964c0,0,18.424-0.072,8.614-15.789l6.688-0.887
	c0,0,36.713,45.303,42.028,57.761l-19.403,13.414l-16.392-8.972"/>
<path fill="#D05F00" d="M487.259,264.754c0,0-7.12,15.519-37.093,15.206l7.17-17.241c0,0-11.076,3.485-29.43-5.479l15.756-2.645
	c0,0-8.705-3.837-18.227-13.267l15.263,0.8l5.31,6.004c0,0,15.824,14.999,26.264-0.103c0,0-13.692-27.486-3.733-26.233
	C468.539,221.797,497.542,248.364,487.259,264.754z"/>
<path fill="#FAEAAA" d="M464.752,230.275c-2.549-3.182-3.231-6.528-1.53-7.48c1.703-0.95,5.146,0.856,7.692,4.037
	c2.546,3.179,3.23,6.528,1.529,7.479C470.741,235.261,467.296,233.453,464.752,230.275z"/>
<path fill="#D71F27" d="M432.877,218.279c-0.456-1.066,1.192-1.94,3.682-1.95c2.49-0.01,4.878,0.847,5.333,1.915
	c0.456,1.067-1.193,1.941-3.683,1.951C435.719,220.205,433.333,219.347,432.877,218.279z"/>
<polyline fill="none" stroke="#000000" stroke-width="1.3425" stroke-miterlimit="10" points="449.948,240.802 438.153,228.801 
	441.964,225.774 "/>
<path d="M456.128,240.564c-0.86-2.017-0.77-3.655,0.206-3.659c0.975-0.004,2.46,1.63,3.321,3.645c0.86,2.018,0.77,3.656-0.206,3.659
	C458.476,244.212,456.988,242.581,456.128,240.564z"/>
<path d="M443.315,240.613c-0.86-2.016-0.768-3.653,0.204-3.658c0.975-0.003,2.462,1.629,3.322,3.646
	c0.86,2.018,0.77,3.654-0.205,3.657C445.663,244.262,444.176,242.63,443.315,240.613z"/>
<path fill="#97CBE2" d="M448.808,193.043l-13.878-1.236l-5.993-9.444c0,0-7.585-8.575-25.445-20.984c0,0-3.224-3.876,1.449-9.487
	l0.183-5.096l30.182-0.117c0,0,20.936,30.658,12.602,34.132C447.907,180.81,441.59,182.48,448.808,193.043z"/>
<path fill="none" stroke="#121212" stroke-width="2.6851" stroke-miterlimit="10" d="M434.952,145.851
	c0,0,21.298,28.747,12.778,34.547c0,0-6.249,1.917,1.078,12.646"/>
<path fill="none" stroke="#121212" stroke-width="2.6851" stroke-miterlimit="10" d="M434.93,191.807
	c0,0-6.283-12.884-24.718-25.721c0,0-11.19-5.981-7.091-12.021l2.035-2.591l-1.993-5.584"/>
<line fill="none" stroke="#121212" stroke-width="0.612" stroke-miterlimit="10" x1="466.657" y1="145.866" x2="326.66" y2="146.413"/>
<line fill="none" stroke="#121212" stroke-width="0.506" stroke-miterlimit="10" x1="198.906" y1="450.289" x2="314.2" y2="450.227"/>
<g>
	<g>
		<path fill="#7BC5E1" d="M259.236,573.087l-2.914,0.002l-6.789-16.709c-2.694-6.633-0.574-8.673,3.311-8.675
			c1.072,0,2.484,0.258,3.356,0.591l0.633,2.631c-0.708-0.259-1.669-0.48-2.641-0.479c-2.612,0.001-3.626,1.298-1.64,6.189
			L259.236,573.087z"/>
	</g>
</g>
<g>
	<g>
		<path fill="#121212" d="M262.626,574.469l-2.914,0.002l-6.789-16.709c-2.694-6.633-0.574-8.673,3.311-8.675
			c1.071-0.001,2.483,0.257,3.356,0.591l0.633,2.63c-0.709-0.258-1.67-0.479-2.641-0.479c-2.613,0.001-3.627,1.298-1.64,6.189
			L262.626,574.469z"/>
	</g>
</g>
<line fill="none" stroke="#121212" stroke-width="0.506" stroke-miterlimit="10" x1="314.232" y1="449.986" x2="198.939" y2="450.047"/>
<g>
	<g>
		<path fill="#7BC5E1" d="M279.292,330.448l2.914-0.002l6.789,16.71c2.694,6.633,0.574,8.672-3.311,8.674
			c-1.071,0.001-2.483-0.257-3.355-0.59l-0.633-2.631c0.708,0.258,1.669,0.48,2.641,0.479c2.612-0.001,3.626-1.298,1.639-6.189
			L279.292,330.448z"/>
	</g>
</g>
<g>
	<g>
		<path fill="#121212" d="M276.326,329.212l2.914-0.002l6.788,16.71c2.694,6.633,0.574,8.672-3.311,8.674
			c-1.071,0-2.483-0.258-3.355-0.591l-0.633-2.631c0.708,0.259,1.669,0.48,2.641,0.48c2.612-0.002,3.626-1.299,1.639-6.189
			L276.326,329.212z"/>
	</g>
</g>
<path fill="#FFDD8B" d="M190.935,365.157c0,0-2.349-7.679,8.577,2.13l4.604,13.226C204.117,380.512,197.348,380.943,190.935,365.157
	z"/>
<path fill="#FFDD8B" d="M194.502,351.368c0,0,7.776,28.792,12.046,34.474c0,0,8.909,12.173,23.28,18.606
	c0,0,6.283,3.406,10.777-0.006c0,0,6.164-4.93,5.646-19.76l-12.756-32.2L194.502,351.368z"/>
<path fill="none" stroke="#121212" stroke-width="1.6751" stroke-linecap="round" stroke-miterlimit="10" d="M204.779,370.924
	c0,0,4.702-2.893,12.116-0.729"/>
<path fill="none" stroke="#121212" stroke-width="1.6751" stroke-linecap="round" stroke-miterlimit="10" d="M221.858,369.571
	c0,0,4.703-2.893,12.117-0.73"/>
<path fill="#121212" d="M211.931,371.645c0.404,0.996,0.075,1.807-0.735,1.807c-0.813,0-1.8-0.809-2.204-1.806
	c-0.405-0.997-0.076-1.807,0.735-1.809C210.539,369.837,211.526,370.647,211.931,371.645z"/>
<path fill="#121212" d="M229.01,370.29c0.405,0.998,0.075,1.807-0.734,1.807c-0.813,0-1.801-0.808-2.204-1.805
	c-0.406-0.999-0.077-1.807,0.734-1.807C227.617,368.483,228.606,369.292,229.01,370.29z"/>
<path fill="none" stroke="#121212" stroke-width="1.6751" stroke-linecap="round" stroke-miterlimit="10" d="M222.647,390.429
	c0,0,9.322-0.368,12.588-0.37"/>
<path fill="#121212" d="M202.636,378.514c0,0-6.487-22.399-7.416-27.098c0,0,24.03,10.104,36.541,0.703l9.935,22.037
	c0,0-3.469-20.596-13.344-29.624l0.408,1.807c0,0-5.188-7.947-15.214-10.11l3.135,2.89c0,0-6.366-3.61-11.805-2.523
	c0,0-7.377-2.886-13.699,3.261c0,0-1.552,1.807-4.1,0.363c0,0,2.38,5.06,5.614,5.778c0,0-3.234-0.719-4.473-2.165
	C188.219,343.833,191.379,360.453,202.636,378.514z"/>
<path fill="#FFDD8B" d="M215.363,392.963l4.581,17.705l17.744,8.301c0,0-9.252-8.307-9.443-18.425l-13.174-8.306"/>
<path fill="#3D3F3F" d="M219.388,410.84c0,0,24.686,21.215,37.615,39.367l-42.251,0.023c0,0-13.913-27.317-7.297-32.741
	C207.456,417.49,217.143,421.544,219.388,410.84z"/>
<path fill="#3D3F3F" d="M237.315,416.439c0,0,23.243,21.59,29.865,33.874l16.44-0.292c0,0-16.496-21.312-33.276-32.866
	c0,0-3.64-2.527-4.244,0.002C246.1,417.157,243.714,419.327,237.315,416.439z"/>
<polygon fill="#FFFFFF" points="217.805,411.029 224.097,430.539 240.476,425.833 218.443,407.776 "/>
<polyline fill="#FFFFFF" points="237.315,416.439 257.8,429.075 244.984,427.276 236.694,415.715 "/>
<path fill="#FFBC5C" d="M218.645,368.868c0,0,2.996,9.039,0.879,15.499c0,0,2.739,2.58,8.521,4.301c0,0,3.56,0.428,4.335-5.17
	c0,0-8.719-6.451-12.555-15.059"/>
<path fill="#FFDD8B" d="M322.953,535.366c0,0,2.348,7.68-8.579-2.128l-4.603-13.225C309.771,520.013,316.54,519.581,322.953,535.366
	z"/>
<path fill="#FFDD8B" d="M319.387,549.158c0,0-7.778-28.793-12.045-34.475c0,0-8.912-12.174-23.284-18.605
	c0,0-6.285-3.408-10.776,0.005c0,0-6.163,4.929-5.646,19.759l12.753,32.2L319.387,549.158z"/>
<path fill="none" stroke="#121212" stroke-width="1.6751" stroke-linecap="round" stroke-miterlimit="10" d="M309.108,529.599
	c0,0-4.704,2.894-12.114,0.729"/>
<path fill="none" stroke="#121212" stroke-width="1.6751" stroke-linecap="round" stroke-miterlimit="10" d="M292.028,530.954
	c0,0-4.702,2.893-12.115,0.729"/>
<path fill="#121212" d="M301.958,528.879c-0.407-0.997-0.077-1.807,0.733-1.808c0.813,0,1.797,0.809,2.205,1.807
	c0.403,0.998,0.076,1.806-0.736,1.807C303.35,530.686,302.362,529.877,301.958,528.879z"/>
<path fill="#121212" d="M284.877,530.235c-0.406-0.998-0.076-1.807,0.734-1.807c0.813-0.001,1.799,0.806,2.205,1.805
	c0.404,0.998,0.075,1.808-0.737,1.808C286.269,532.042,285.283,531.233,284.877,530.235z"/>
<path fill="none" stroke="#121212" stroke-width="1.6751" stroke-linecap="round" stroke-miterlimit="10" d="M291.241,510.096
	c0,0-9.323,0.365-12.59,0.367"/>
<path fill="#121212" d="M311.251,522.009c0,0,6.486,22.398,7.416,27.098c0,0-24.029-10.104-36.541-0.703l-9.935-22.037
	c0,0,3.469,20.596,13.343,29.624l-0.407-1.807c0,0,5.188,7.948,15.213,10.11l-3.135-2.89c0,0,6.367,3.611,11.803,2.522
	c0,0,7.381,2.888,13.702-3.259c0,0,1.553-1.809,4.099-0.361c0,0-2.379-5.061-5.613-5.782c0,0,3.234,0.722,4.473,2.166
	C325.668,556.691,322.508,540.072,311.251,522.009z"/>
<path fill="#FFDD8B" d="M298.523,507.562l-4.58-17.705l-17.745-8.301c0,0,9.254,8.305,9.444,18.423l13.175,8.305"/>
<path fill="#3D3F3F" d="M294.475,489.629c0,0-24.709-21.27-37.635-39.422l42.252-0.023c0,0,13.922,27.346,7.307,32.77
	C306.399,482.954,296.723,478.925,294.475,489.629z"/>
<path fill="#3D3F3F" d="M276.573,484.085c0,0-21.931-21.143-28.553-33.425l-17.753-0.156c0,0,16.497,21.312,33.276,32.864
	c0,0,3.64,2.528,4.245-0.001C267.789,483.368,270.174,481.197,276.573,484.085z"/>
<polygon fill="#FFFFFF" points="296.083,489.495 289.79,469.984 273.41,474.692 295.445,492.748 "/>
<polyline fill="#FFFFFF" points="276.573,484.085 256.088,471.448 268.903,473.249 277.192,484.808 "/>
<path fill="#FFBC5C" d="M295.242,531.655c0,0-2.993-9.039-0.876-15.497c0,0-2.743-2.582-8.523-4.304c0,0-3.561-0.425-4.336,5.172
	c0,0,8.719,6.452,12.555,15.061"/>
<path fill="#B9E8FF" stroke="#121212" stroke-width="5.2632" stroke-miterlimit="10" d="M424.1,594.243
	c-2.404,5.684-8.434,10.272-13.452,10.249l-147.049-0.671c-5.028-0.02-7.153-4.651-4.748-10.335l112.492-265.774
	c2.405-5.678,8.434-10.264,13.456-10.243l147.045,0.67c5.027,0.02,7.149,4.652,4.744,10.33L424.1,594.243z"/>
<path fill="#009DE7" d="M417.899,587.408c-2.23,5.682-4.539,9.602-10.56,9.602l-131.69-0.023c-4.657-0.021-8.93-0.406-4.63-10.297
	L378.097,332.54c2.229-5.68,5.504-4.938,10.16-4.918l129.487,3.682c4.654,0.027,6.625,4.65,4.396,10.33L417.899,587.408z"/>
<path fill="#FFFFFF" stroke="#121212" stroke-width="5.2632" stroke-miterlimit="10" d="M498.956,594.243
	c2.402,5.684,8.431,10.272,13.458,10.249l147.045-0.671c5.026-0.02,7.147-4.651,4.744-10.335L551.709,327.711
	c-2.401-5.678-8.427-10.264-13.453-10.243l-147.048,0.67c-5.027,0.02-7.149,4.652-4.741,10.33L498.956,594.243z"/>
<g>
	<polygon fill="none" points="583.231,377.553 542.925,377.553 522.335,328.415 562.641,328.415 	"/>
	<path fill="#45B1C4" d="M525.114,329.626h2.64l4.548,10.854h0.092c0.183-0.868,0.393-1.67,0.601-2.405l2.712-8.449h3.277
		l-3.402,9.552l13.41,12.957h-3.125l-11.37-11.054l-0.907,2.472l3.597,8.582h-2.64L525.114,329.626z"/>
</g>
<g>
	<polygon fill="none" points="581.41,376.356 541.104,376.356 520.514,327.217 560.819,327.217 	"/>
	<path fill="#121212" d="M523.292,328.428h2.641l4.548,10.854h0.091c0.183-0.868,0.394-1.67,0.601-2.404l2.712-8.45h3.278
		l-3.403,9.552l13.411,12.958h-3.126l-11.37-11.055l-0.906,2.472l3.596,8.583h-2.64L523.292,328.428z"/>
</g>
<g>
	<polygon fill="none" points="470.059,540.661 510.364,540.661 530.953,589.799 490.648,589.799 	"/>
	<path fill="#45B1C4" d="M528.11,588.608h-2.641l-4.548-10.854h-0.091c-0.183,0.868-0.394,1.67-0.601,2.404l-2.712,8.449h-3.277
		l3.402-9.552l-13.411-12.957h3.126l11.369,11.054l0.907-2.471l-3.596-8.583h2.64L528.11,588.608z"/>
</g>
<g>
	<polygon fill="none" points="471.88,541.857 512.183,541.857 532.774,590.996 492.469,590.996 	"/>
	<path fill="#121212" d="M529.931,589.804h-2.64l-4.549-10.854h-0.091c-0.183,0.869-0.394,1.67-0.601,2.405l-2.712,8.449h-3.278
		l3.403-9.552l-13.411-12.957h3.126l11.37,11.054l0.906-2.472l-3.596-8.582h2.64L529.931,589.804z"/>
</g>
<line fill="none" stroke="#121212" stroke-width="0.631" stroke-miterlimit="10" x1="455.049" y1="461.894" x2="599.234" y2="461.894"/>
<path fill="#FAEAAA" d="M506.622,366.566c7.771,18.55,3.824,33.587-8.819,33.587c-12.643,0-28.561-15.048-36.964-33.587
	c-13.438-29.637-3.826-33.588,8.817-33.588C482.297,332.978,493.375,334.954,506.622,366.566z"/>
<path fill="#924C23" d="M458.426,339.399c0,0,2.585,9.385,28.138,10.373l-10.598-4.938c0,0,15.573,3.951,20.823,1.481
	C496.79,346.315,478.43,319.641,458.426,339.399z"/>
<path fill="#924C23" d="M462.601,341.869c0,0,5.31,21.239-3.462,21.733c0,0-19.806-36.553,15.485-31.612"/>
<path fill="#924C23" d="M491.195,345.821l15.427,20.745c0,0-8.068-25.684-20.257-30.131"/>
<path fill="#121212" d="M474.692,362.584c0.686,1.637,0.437,2.964-0.556,2.964c-0.991,0-2.351-1.327-3.036-2.964
	c-0.687-1.637-0.439-2.964,0.553-2.964S474.005,360.948,474.692,362.584z"/>
<path fill="#121212" d="M494.792,363.311c0.686,1.636,0.437,2.964-0.555,2.964c-0.992,0-2.352-1.328-3.037-2.964
	c-0.687-1.638-0.439-2.964,0.553-2.964S494.105,361.673,494.792,363.311z"/>
<path fill="#FAEAAA" d="M464.995,368.949c2.461,3.683,2.764,7.253,0.676,7.976c-2.09,0.722-5.777-1.679-8.239-5.362
	c-2.462-3.683-2.765-7.254-0.675-7.976C458.845,362.865,462.533,365.266,464.995,368.949z"/>
<path fill="#FAEAAA" d="M514.293,371.802c0.433,3.626-1.414,5.874-4.128,5.021c-2.713-0.854-5.263-4.485-5.695-8.114
	c-0.434-3.627,1.414-5.875,4.128-5.021C511.311,364.541,513.861,368.175,514.293,371.802z"/>
<path fill="none" stroke="#000000" stroke-miterlimit="10" d="M480.754,361.838c1.597,3.809,0.084,7-3.377,7h-3.959
	c-3.462,0-7.564-3.191-9.161-7l0,0c-1.596-3.809-0.084-7,3.378-7h3.959C475.056,354.838,479.159,358.03,480.754,361.838
	L480.754,361.838z"/>
<path fill="none" stroke="#000000" stroke-miterlimit="10" d="M502.178,362.838c1.595,3.81,0.083,7-3.378,7h-3.959
	c-3.462,0-7.563-3.19-9.16-7l0,0c-1.596-3.81-0.083-7,3.377-7h3.96C496.48,355.838,500.582,359.029,502.178,362.838L502.178,362.838
	z"/>
<path fill="none" stroke="#000000" stroke-width="0.6921" stroke-miterlimit="10" d="M480.762,362.389c0,0,1.206-3.232,4.692-0.269"
	/>
<path fill="none" stroke="#000000" stroke-width="0.6921" stroke-miterlimit="10" d="M476.571,378.42c0,0,12.396,4.939,25.349,0.493
	"/>
<path fill="#FAEAAA" d="M480.363,391.756c0,0,14.532,14.325,14.873,23.71c0,0,10.771,6.421,20.652,0c0,0-8.906-8.397-8.657-21.733"
	/>
<path fill="#FAEAAA" stroke="#E78E00" stroke-width="1.3843" stroke-linecap="round" stroke-miterlimit="10" d="M490.034,391.263
	c0,0,6.766,5.433,11.017-0.494"/>
<path fill="#00114A" d="M493.202,409.539l27.774,52.357l-38.368-0.494C482.608,461.402,467.574,416.947,493.202,409.539z"/>
<polygon fill="#FFFFFF" points="493.202,409.539 505.733,416.948 511.401,409.044 517.579,418.43 499.721,421.887 "/>
<path fill="#00114A" d="M510.264,409.539l16.103,52.357l37.953-0.494C564.32,461.402,542.1,416.947,510.264,409.539z"/>
<polyline fill="#00114A" points="505.783,416.926 505.776,417.783 505.72,424.346 509.78,429.784 517.73,458.658 520.963,462.338 
	528.712,462.338 512.017,430.035 511.12,423.491 "/>
<path fill="#FAEAAA" d="M540.548,556.815c-7.773-18.551-3.824-33.588,8.817-33.588c12.645,0,28.562,15.048,36.966,33.588
	c13.437,29.637,3.825,33.587-8.818,33.587C564.872,590.402,553.794,588.426,540.548,556.815z"/>
<path fill="#924C23" d="M588.745,583.982c0,0-2.587-9.384-28.139-10.373l10.598,4.939c0,0-15.573-3.952-20.823-1.482
	C550.38,577.066,568.74,603.74,588.745,583.982z"/>
<path fill="#924C23" d="M584.568,581.511c0,0-5.31-21.239,3.463-21.732c0,0,19.806,36.553-15.486,31.611"/>
<path fill="#924C23" d="M555.974,577.56l-15.426-20.745c0,0,8.068,25.685,20.256,30.13"/>
<path fill="#121212" d="M572.478,560.795c-0.686-1.636-0.437-2.964,0.556-2.964c0.991,0,2.352,1.328,3.036,2.964
	c0.686,1.638,0.439,2.965-0.553,2.965S573.165,562.433,572.478,560.795z"/>
<path fill="#121212" d="M552.378,560.069c-0.686-1.636-0.437-2.963,0.555-2.963c0.992,0,2.351,1.327,3.037,2.963
	c0.686,1.639,0.439,2.965-0.553,2.965S553.065,561.708,552.378,560.069z"/>
<path fill="#FAEAAA" d="M582.175,554.432c-2.462-3.684-2.764-7.253-0.675-7.975c2.088-0.723,5.775,1.677,8.238,5.36
	c2.461,3.683,2.763,7.254,0.675,7.976C588.325,560.516,584.636,558.116,582.175,554.432z"/>
<path fill="#FAEAAA" d="M532.877,551.579c-0.434-3.627,1.413-5.874,4.126-5.021c2.715,0.854,5.263,4.486,5.696,8.114
	c0.434,3.626-1.415,5.875-4.127,5.021C535.86,558.84,533.31,555.206,532.877,551.579z"/>
<path fill="none" stroke="#000000" stroke-miterlimit="10" d="M583.241,560.838c1.597,3.809,0.084,7-3.378,7h-3.959
	c-3.461,0-7.562-3.191-9.158-7l0,0c-1.598-3.811-0.085-7,3.377-7h3.96C577.543,553.838,581.645,557.028,583.241,560.838
	L583.241,560.838z"/>
<path fill="none" stroke="#000000" stroke-miterlimit="10" d="M561.825,560.338c1.597,3.809,0.077,6.5-3.385,6.5h-3.959
	c-3.461,0-7.556-2.691-9.153-6.5l0,0c-1.596-3.81-0.076-6.5,3.386-6.5h3.959C556.133,553.838,560.228,556.529,561.825,560.338
	L561.825,560.338z"/>
<path fill="none" stroke="#000000" stroke-width="0.6921" stroke-miterlimit="10" d="M566.408,560.991c0,0-1.206,3.232-4.692,0.271"
	/>
<path fill="none" stroke="#000000" stroke-width="0.6921" stroke-miterlimit="10" d="M570.599,544.959
	c0,0-12.396-4.939-25.349-0.493"/>
<path fill="#FAEAAA" d="M566.805,531.624c0,0-14.531-14.324-14.872-23.71c0,0-10.771-6.419-20.651,0c0,0,8.906,8.398,8.657,21.735"
	/>
<path fill="#FAEAAA" stroke="#E78E00" stroke-width="1.3843" stroke-linecap="round" stroke-miterlimit="10" d="M557.135,532.117
	c0,0-6.765-5.432-11.015,0.495"/>
<path fill="#00114A" d="M553.968,513.842l-27.774-52.357l38.367,0.493C564.561,461.978,579.596,506.434,553.968,513.842z"/>
<polygon fill="#FFFFFF" points="553.968,513.842 541.436,506.432 535.768,514.335 529.59,504.951 547.448,501.495 "/>
<path fill="#00114A" d="M536.905,513.842l-16.101-52.357l-37.954,0.493C482.85,461.978,505.068,506.434,536.905,513.842z"/>
<polyline fill="#00114A" points="541.387,506.456 541.394,505.597 541.45,499.035 537.39,493.596 529.512,465.37 526.353,462.338 
	518.605,462.338 535.227,493.993 536.087,500.214 "/>
<line fill="none" stroke="#121212" stroke-width="0.506" stroke-miterlimit="10" x1="199.654" y1="450.539" x2="314.948" y2="450.476"/>
<g>
</g>
<g>
</g>
<g>
</g>
<g>
</g>
<g>
</g>
<g>
</g>
<g>
</g>
<g>
</g>
<g>
</g>
<g>
</g>
<g>
</g>
<g>
</g>
<g>
</g>
<g>
</g>
<g>
</g>
</svg>
