<?xml version="1.0" encoding="utf-8"?>
<!-- Generator: Adobe Illustrator 16.0.0, SVG Export Plug-In . SVG Version: 6.00 Build 0)  -->
<!DOCTYPE svg PUBLIC "-//W3C//DTD SVG 1.1//EN" "http://www.w3.org/Graphics/SVG/1.1/DTD/svg11.dtd">
<svg version="1.1" id="Layer_1" xmlns="http://www.w3.org/2000/svg" xmlns:xlink="http://www.w3.org/1999/xlink" x="0px" y="0px"
	 width="559.008px" height="632.002px" viewBox="0 0 559.008 632.002" enable-background="new 0 0 559.008 632.002"
	 xml:space="preserve">
<path fill="#FFBC5C" d="M54.295,627.736c0,0-34.751-246.876,56.321-325.966c0,0,346.314,135.41,384.661,119.832
	c0,0,29.958,158.224-2.396,206.134H54.295z"/>
<path fill="#451E00" d="M57.536,627.736c-30.802-226.505,59.072-299.603,59.072-299.603
	c130.617,174.955,375.075,104.254,375.075,104.254c19.174,79.09-2.438,195.349-2.438,195.349h37.188
	c91.072-230.101-52.521-361.333-52.521-361.333l-2.602,0.615l47.933-2.396c-70.701-58.718-206.665-45.552-206.665-45.552
	l61.669-22.751c-133.015-41.94-233.674,63.509-233.674,63.509c-3.595-23.967-34.752-44.338-34.752-44.338l12.091,41.58
	l-25.272-14.021l-31.161-2.394l41.946,41.943c-149.79,58.718-87.478,345.139-87.478,345.139"/>
<path fill="#FFFFFF" d="M91.607,571.068c0,0,98.327-48.216,137.215,12.088c0,0-9.984,5.093-20.1,12.964
	C208.722,596.12,135.457,644.135,91.607,571.068z"/>
<ellipse fill="#451E00" cx="161.373" cy="578.033" rx="22.244" ry="23.172"/>
<path fill="#FFFFFF" d="M448.992,574.801c0,0-97.312-50.234-137.435,9.255c0,0,9.878,5.297,19.83,13.376
	C331.387,597.432,403.644,646.947,448.992,574.801z"/>
<ellipse fill="#451E00" cx="380.174" cy="581.514" rx="22.244" ry="23.172"/>
<path fill="none" stroke="#000000" stroke-width="7" stroke-miterlimit="10" d="M104.625,307.762
	c0,0,101.856,195.326,397.843,119.832"/>
<path fill="#451E00" d="M74.036,547.275c0,0,78.21-49.586,165.21-1.295l-17.186-30.496
	C222.06,515.484,147.227,474.861,74.036,547.275z"/>
<path fill="#451E00" d="M475.456,550.275c0,0-81.314-49.728-168.314-1.437l19.173-32.354
	C326.314,516.484,402.264,477.861,475.456,550.275z"/>
<circle fill="#FFFFFF" cx="169.131" cy="563.009" r="8.987"/>
<circle fill="#FFFFFF" cx="387.131" cy="568.009" r="8.987"/>
<path fill="none" stroke="#000000" stroke-width="7" stroke-miterlimit="10" d="M476.105,271.812
	c0,0,137.807,112.691,50.329,355.924"/>
<path fill="none" stroke="#000000" stroke-width="7" stroke-miterlimit="10" d="M15.949,631.305c0,0-61.114-300.77,87.478-348.707
	l-46.734-41.946c0,0,40.743-4.793,62.312,17.976l-15.578-45.537c0,0,37.147,21.578,34.751,50.334c0,0,91.325-109.112,233.855-67.759
	c0.737,0.214,1.476,0.432,2.215,0.653l-59.916,23.966c0,0,117.434-20.372,204.912,44.338l-76.692,4.794"/>
<g>
</g>
<g>
</g>
<g>
</g>
<g>
</g>
<g>
</g>
<g>
</g>
<g>
</g>
<g>
</g>
<g>
</g>
<g>
</g>
<g>
</g>
<g>
</g>
<g>
</g>
<g>
</g>
<g>
</g>
</svg>
