<?xml version="1.0" encoding="utf-8"?>
<!-- Generator: Adobe Illustrator 16.0.0, SVG Export Plug-In . SVG Version: 6.00 Build 0)  -->
<!DOCTYPE svg PUBLIC "-//W3C//DTD SVG 1.1//EN" "http://www.w3.org/Graphics/SVG/1.1/DTD/svg11.dtd">
<svg version="1.1" xmlns="http://www.w3.org/2000/svg" xmlns:xlink="http://www.w3.org/1999/xlink" x="0px" y="0px"
	 width="868.254px" height="1159.333px" viewBox="0 0 868.254 1159.333" enable-background="new 0 0 868.254 1159.333"
	 xml:space="preserve">
<g id="deck">
	<path fill="#7198B8" d="M257.407,868.575c0,10.277-8.059,18.609-18,18.609H18c-9.941,0-18-8.332-18-18.609V509.497
		c0-10.277,8.059-18.608,18-18.608h221.407c9.941,0,18,8.331,18,18.608V868.575z"/>
	<path fill="#FFFFFF" stroke="#121212" stroke-width="4" stroke-miterlimit="10" d="M270.748,860.74
		c0,7.827-6.346,14.173-14.173,14.173H27.514c-7.827,0-14.173-6.346-14.173-14.173V494.643c0-7.828,6.346-14.173,14.173-14.173
		h229.062c7.827,0,14.173,6.345,14.173,14.173V860.74z"/>
	<path fill="#FAEAAA" d="M113.111,541.218c0,0-10.867,9.315-13.196,30.273c0,0-3.489,31.499,0.346,40.812
		c0,0,18.631,13.152,41.096,0.549c0,0,2.237,6.9,8.537-25.453l12.899-36.866l-37.261-15.526L113.111,541.218z"/>
	<path fill="#D69F59" d="M103.224,557.05c0,0-6.014-5.727-5.155-12.598c0,0,1.582-17.84,14.316-9.735c0,0,5.41-28.165,19.491-12.665
		c0,0,5.787,9.262,13.891,2.895c0,0,23.596-12.849,22.575,13.312c0,0-4.134,23.085,13.312,16.786c0,0,16.34,31.208-33.479,40.085
		l6.442-25.977c0,0,9.877-24.416-10.588-19.896c0,0-17.901,6.934-23.628,0.634l-4.735-5.845
		C115.667,544.046,105.228,547.888,103.224,557.05z"/>
	<path fill="none" stroke="#121212" stroke-width="2.3288" stroke-linecap="round" stroke-miterlimit="10" d="M107.564,564.306
		c0,0,4.053-0.578,8.104,1.158"/>
	<path fill="none" stroke="#121212" stroke-width="2.6199" stroke-linecap="round" stroke-miterlimit="10" d="M126.159,567.134
		c0,0,4.559-0.65,9.117,1.303"/>
	<path fill="#FAEAAA" d="M150.958,573.854c0,0,13.313-3.472,14.471,4.631c0,0,2.315,9.262-16.785,10.998"/>
	<path fill="#F1CB94" d="M120.822,565.656c0,0-10.942,8.491-17.889,10.806c0,0,1.491,7.42,14.226,6.842
		c0,0,3.718-3.369,3.718-14.945L120.822,565.656z"/>
	<path fill="#FAEAAA" d="M118.397,615.458c0,0.001,10.021-4.008,10.594,2.863c0.4,4.803-2.361,11.885-8.588,20.043
		c0,0-8.019,10.881,0.572,15.461c0,0,25.195,9.736,45.811-16.892c0,0-25.483-22.335-19.471-40.085"/>
	<path fill="#7AA6CD" d="M123.838,632.921c0,0-10.308,15.749,6.013,17.18c0,0,24.624,3.148,30.923-19.184
		c0,0,22.332,15.748,28.631,39.799H98.068C98.068,670.716,104.941,649.241,123.838,632.921z"/>
	<path fill="#3D3F3F" d="M157.909,627.768c0,0,4.868,13.457-7.443,42.661h38.938c0,0-0.858-18.896-26.913-39.797"/>
	<path fill="#3D3F3F" d="M152.47,620.036c0,0,5.726-1.145,13.457,1.719c0,0,3.15,1.432,7.158,0.858c0,0-2.291,9.163-13.457,14.603
		C159.628,637.216,161.06,629.771,152.47,620.036z"/>
	<path fill="#3D3F3F" d="M116.966,670.429c0,0-1.717-23.765,9.736-42.375c0,0,2.003-4.009,2.003-6.585c0,0-4.294-0.86-18.896,4.866
		c0,0-3.437,1.719-7.73,0.574c0,0-1.269,5.121,8.047,14.984l-0.03,0.476c0,0-7.731,8.591-12.026,28.347L116.966,670.429z"/>
	<path fill="none" stroke="#121212" stroke-width="3.1051" stroke-miterlimit="10" d="M152.47,620.036c0,0,9.16-0.607,15.736,2.68
		c0,0,3.835,1.644,5.479-1.645c0,0-2.739,9.863-7.123,12.056c0,0,21.028,18.716,22.842,37.302"/>
	<path fill="none" stroke="#121212" stroke-width="3.1051" stroke-miterlimit="10" d="M98.068,670.716
		c0,0,1.646-15.672,12.604-29.918c0,0-7.875-6.956-8.595-13.889c0,0,3.115,1.835,16.266-3.645c0,0,5.38-1.4,10.361-1.796"/>
	<path fill="none" stroke="#7AA6CD" stroke-width="0.9971" stroke-miterlimit="10" d="M264.142,858.23
		c0,5.684-4.643,10.292-10.368,10.292h-223.2c-5.726,0-10.368-4.608-10.368-10.292V497.029c0-5.684,4.643-10.292,10.368-10.292
		h223.2c5.726,0,10.368,4.608,10.368,10.292V858.23z"/>
	
		<ellipse transform="matrix(0.7649 0.6442 -0.6442 0.7649 411.4743 35.3985)" fill="#FFFFFF" stroke="#121212" stroke-width="1.5525" stroke-miterlimit="10" cx="157.248" cy="581.345" rx="3.836" ry="4.656"/>
	<path fill="none" stroke="#121212" stroke-width="1.5525" stroke-linecap="round" stroke-miterlimit="10" d="M158.892,581.072
		c0,0-0.001,44.382-29.589,61.917c0,0-4.932,8.766-4.384,26.85"/>
	<path fill="none" stroke="#121212" stroke-width="1.5525" stroke-miterlimit="10" d="M129.303,642.989
		c0,0-7.123-6.027-9.862-25.205"/>
	
		<line fill="none" stroke="#121212" stroke-width="0.7914" stroke-miterlimit="10" x1="43.28" y1="671.292" x2="232.971" y2="671.292"/>
	<path fill="#FAEAAA" d="M163.355,801.009c0,0,10.867-9.315,13.196-30.273c0,0,3.489-31.498-0.346-40.812
		c0,0-18.631-13.152-41.096-0.549c0,0-2.237-6.9-8.537,25.453l-12.898,36.866l37.26,15.526L163.355,801.009z"/>
	<path fill="#D69F59" d="M173.243,785.177c0,0,6.014,5.727,5.155,12.598c0,0-1.582,17.84-14.316,9.735
		c0,0-5.41,28.165-19.491,12.665c0,0-5.787-9.262-13.891-2.895c0,0-23.596,12.849-22.575-13.312c0,0,4.134-23.085-13.312-16.786
		c0,0-16.34-31.208,33.479-40.085l-6.442,25.978c0,0-9.877,24.415,10.588,19.896c0,0,17.901-6.934,23.628-0.634l4.735,5.845
		C160.8,798.181,171.239,794.339,173.243,785.177z"/>
	<path fill="none" stroke="#121212" stroke-width="2.3288" stroke-linecap="round" stroke-miterlimit="10" d="M168.902,777.921
		c0,0-4.052,0.578-8.104-1.158"/>
	<path fill="none" stroke="#121212" stroke-width="2.6199" stroke-linecap="round" stroke-miterlimit="10" d="M150.308,775.093
		c0,0-4.559,0.65-9.117-1.303"/>
	<path fill="#FAEAAA" d="M125.509,768.372c0,0-13.313,3.472-14.471-4.631c0,0-2.315-9.262,16.785-10.998"/>
	<path fill="#F1CB94" d="M155.645,776.57c0,0,10.942-8.49,17.89-10.806c0,0-1.492-7.42-14.227-6.842c0,0-3.718,3.369-3.718,14.945
		L155.645,776.57z"/>
	<path fill="#FAEAAA" d="M158.069,726.769c0-0.001-10.021,4.008-10.594-2.863c-0.4-4.803,2.361-11.885,8.588-20.043
		c0,0,8.019-10.881-0.572-15.461c0,0-25.195-9.736-45.811,16.892c0,0,25.483,22.335,19.471,40.085"/>
	<path fill="#7AA6CD" d="M152.629,709.306c0,0,10.308-15.749-6.013-17.18c0,0-24.624-3.148-30.923,19.184
		c0,0-22.332-15.748-28.631-39.799h91.336C178.398,671.511,171.525,692.985,152.629,709.306z"/>
	<path fill="#3D3F3F" d="M118.558,714.459c0,0-4.868-13.457,7.444-42.661H87.062c0,0,0.858,18.896,26.913,39.797"/>
	<path fill="#3D3F3F" d="M123.997,722.19c0,0-5.726,1.145-13.457-1.719c0,0-3.15-1.432-7.158-0.857c0,0,2.291-9.164,13.457-14.604
		C116.839,705.011,115.407,712.455,123.997,722.19z"/>
	<path fill="#3D3F3F" d="M159.501,671.798c0,0,1.717,23.765-9.736,42.375c0,0-2.003,4.009-2.003,6.585c0,0,4.294,0.86,18.896-4.866
		c0,0,3.437-1.719,7.73-0.574c0,0,1.269-5.121-8.047-14.984l0.031-0.476c0,0,7.73-8.591,12.025-28.347L159.501,671.798z"/>
	<path fill="none" stroke="#121212" stroke-width="3.1051" stroke-miterlimit="10" d="M123.997,722.19c0,0-9.16,0.607-15.736-2.68
		c0,0-3.835-1.644-5.479,1.645c0,0,2.739-9.863,7.123-12.056c0,0-21.027-18.715-22.842-37.302"/>
	<path fill="none" stroke="#121212" stroke-width="3.1051" stroke-miterlimit="10" d="M178.398,671.511
		c0,0-1.646,15.672-12.604,29.918c0,0,7.875,6.956,8.595,13.889c0,0-3.115-1.835-16.266,3.645c0,0-5.38,1.4-10.361,1.796"/>
	<g>
		<g>
			<path fill="#7BC5E1" d="M47.889,855.979h-4.003v-20.749c0-8.234,4.049-10.765,9.385-10.765c1.473,0,3.267,0.322,4.279,0.736
				l-0.599,3.266c-0.828-0.321-2.024-0.598-3.358-0.598c-3.588,0-5.704,1.61-5.704,7.683V855.979z"/>
		</g>
	</g>
	<g>
		<g>
			<path fill="#121212" d="M51.037,857.408h-4.003v-20.749c0-8.234,4.049-10.765,9.385-10.765c1.473,0,3.267,0.322,4.279,0.736
				l-0.599,3.266c-0.828-0.321-2.024-0.598-3.358-0.598c-3.588,0-5.704,1.61-5.704,7.683V857.408z"/>
		</g>
	</g>
	
		<ellipse transform="matrix(-0.7649 -0.6442 0.6442 -0.7649 -279.7501 1419.6506)" fill="#FFFFFF" stroke="#121212" stroke-width="1.5525" stroke-miterlimit="10" cx="119.219" cy="760.881" rx="3.836" ry="4.656"/>
	<path fill="none" stroke="#121212" stroke-width="1.5525" stroke-linecap="round" stroke-miterlimit="10" d="M117.575,761.154
		c0,0,0.001-44.382,29.589-61.917c0,0,4.932-8.766,4.384-26.85"/>
	<path fill="none" stroke="#121212" stroke-width="1.5525" stroke-miterlimit="10" d="M147.164,699.237
		c0,0,7.123,6.027,9.863,25.205"/>
	
		<line fill="none" stroke="#121212" stroke-width="0.7914" stroke-miterlimit="10" x1="233.187" y1="670.935" x2="43.496" y2="670.935"/>
	<g>
		<g>
			<path fill="#7BC5E1" d="M240.854,495.99h4.003v20.749c0,8.234-4.049,10.765-9.385,10.765c-1.473,0-3.267-0.322-4.279-0.736
				l0.599-3.266c0.828,0.321,2.024,0.598,3.358,0.598c3.588,0,5.704-1.61,5.704-7.683V495.99z"/>
		</g>
	</g>
	<g>
		<g>
			<path fill="#121212" d="M237.705,494.56h4.003v20.749c0,8.234-4.049,10.765-9.385,10.765c-1.473,0-3.267-0.322-4.279-0.736
				l0.599-3.266c0.828,0.321,2.024,0.598,3.358,0.598c3.588,0,5.704-1.61,5.704-7.683V494.56z"/>
		</g>
	</g>
</g>
<g id="joker">
</g>
<g id="handcard">
</g>
<g id="hand">
	<g>
	</g>
	<g>
	</g>
	<g>
	</g>
	<g>
	</g>
	<g>
	</g>
	<g>
	</g>
	<g>
	</g>
	<g>
	</g>
	<g>
	</g>
	<g>
	</g>
	<g>
	</g>
	<g>
	</g>
	<g>
	</g>
	<g>
	</g>
	<g>
	</g>
</g>
</svg>
