<?xml version="1.0" encoding="utf-8"?>
<!-- Generator: Adobe Illustrator 16.0.0, SVG Export Plug-In . SVG Version: 6.00 Build 0)  -->
<!DOCTYPE svg PUBLIC "-//W3C//DTD SVG 1.1//EN" "http://www.w3.org/Graphics/SVG/1.1/DTD/svg11.dtd">
<svg version="1.1" xmlns="http://www.w3.org/2000/svg" xmlns:xlink="http://www.w3.org/1999/xlink" x="0px" y="0px"
	 width="868.254px" height="1159.333px" viewBox="0 0 868.254 1159.333" enable-background="new 0 0 868.254 1159.333"
	 xml:space="preserve">
<g id="deck">
	<path fill="#7198B8" d="M568.35,389.45c0,10.277-8.059,18.609-18,18.609H328.942c-9.941,0-18-8.332-18-18.609V30.372
		c0-10.277,8.059-18.608,18-18.608H550.35c9.941,0,18,8.331,18,18.608V389.45z"/>
	<path fill="#FFFFFF" stroke="#121212" stroke-width="4" stroke-miterlimit="10" d="M579.63,382.271
		c0,7.827-6.346,14.173-14.173,14.173H336.396c-7.827,0-14.173-6.346-14.173-14.173V16.174C322.223,8.346,328.568,2,336.396,2
		h229.062c7.827,0,14.173,6.346,14.173,14.174V382.271z"/>
	<path fill="none" stroke="#E0B5CA" stroke-width="0.9971" stroke-miterlimit="10" d="M573.049,379.761
		c0,5.684-4.643,10.292-10.368,10.292h-223.2c-5.726,0-10.368-4.608-10.368-10.292V18.56c0-5.684,4.643-10.292,10.368-10.292h223.2
		c5.726,0,10.368,4.608,10.368,10.292V379.761z"/>
	<polygon fill="#F5D2A0" points="474.207,178.064 483.566,196.783 461.892,196.291 462.384,178.557 	"/>
	<g>
		<g>
			<path fill="#DC8DAF" d="M551.014,55.715c-4.187-1.104-8.281-2.347-11.869-3.589c-0.645-0.229-1.288-0.46-1.887-0.46
				c-7.36-0.275-13.663-5.704-13.663-15.688c0-9.938,6.072-16.332,14.445-16.332c8.419,0,13.894,6.533,13.894,15.688
				c0,7.959-3.68,13.065-8.833,14.86v0.184c3.083,0.782,6.441,1.519,9.063,1.979L551.014,55.715z M547.701,35.519
				c0-6.211-3.22-12.605-9.799-12.605c-6.763,0-10.075,6.257-10.029,12.974c-0.046,6.578,3.589,12.513,9.846,12.513
				C544.113,48.399,547.701,42.604,547.701,35.519z"/>
		</g>
	</g>
	<path fill="#97CBE2" d="M434.099,135.363c0,0-26.886,9.203-31.812,32.849l-2.464,9.853h18.227c0,0,0.985,11.823-2.463,23.646
		h55.665c0,0-5.911-9.359-0.492-17.241c0,0,8.095-5.452,8.189-5.775c0.185-0.629-3.756-23.781-16.071-34.619
		C462.877,144.074,448.67,130.101,434.099,135.363z"/>
	<path fill="#E4AE5C" d="M431.285,110.402c0,0-34.032,6.539-41.758-13.667c0,0-4.16-11.29,13.075-20.8
		c0,0,16.639-9.508,24.365-36.845c0,0,3.565-22.583,39.223-17.233c0,0,27.932,5.94,27.337,28.523c0,0-3.918,19.021,7.132,42.194
		c0,0,20.711,25.912-4.16,27.932c0,0-17.234,4.161-37.44-5.349C459.059,115.158,446.737,110.404,431.285,110.402z"/>
	<path fill="#FAEAAA" d="M461.436,43.844c0,0-16.64,19.018-30.308,19.612c0,0-16.047,25.555,4.159,50.515
		c0,0,7.726,13.668-1.188,21.393c0,0,8.32,13.075,18.422,2.973c0,0-5.941-13.074,2.973-20.801c0,0,35.063-7.131,27.337-46.949
		C482.83,70.586,465.596,61.672,461.436,43.844z"/>
	
		<line fill="none" stroke="#121212" stroke-width="2.6885" stroke-linecap="round" stroke-miterlimit="10" x1="444.202" y1="65.238" x2="443.606" y2="73.11"/>
	
		<line fill="none" stroke="#121212" stroke-width="2.6885" stroke-linecap="round" stroke-miterlimit="10" x1="468.697" y1="68.233" x2="465.873" y2="75.846"/>
	<path fill="#D71F27" d="M442.424,98.748c0,0,5.206-3.533,9.299-1.115l0.93,1.487c0,0,2.603-1.487,4.276-1.302
		c0,0,4.463,0.745,4.648,4.836C461.577,102.654,447.816,111.021,442.424,98.748z"/>
	<path fill="#FAEAAA" d="M407.212,178.064c0,0-1.971,8.866,0.492,23.152l19.705-0.492c0,0-3.941-4.925-4.927-23.152L407.212,178.064
		z"/>
	<polyline fill="#4EB194" stroke="#121212" stroke-width="3" stroke-miterlimit="10" points="474.207,201.217 499.33,135.7 
		556.966,157.867 539.724,201.71 	"/>
	<path fill="#FAEAAA" d="M460.414,199.247c0,0,12.808-13.301,33.005-10.838l8.867,1.478l-0.493,2.956c0,0-10.837-0.492-17.241,0
		l-3.941,1.478c0,0,13.794,0.985,19.705,5.419l2.955,0.985l-45.319,0.985L460.414,199.247z"/>
	<g>
		<g>
			<path fill="#121212" d="M548.755,54.02c-4.187-1.104-8.281-2.347-11.869-3.589c-0.645-0.229-1.288-0.46-1.887-0.46
				c-7.36-0.275-13.663-5.704-13.663-15.688c0-9.938,6.072-16.332,14.445-16.332c8.419,0,13.894,6.533,13.894,15.688
				c0,7.959-3.68,13.065-8.833,14.86v0.184c3.083,0.782,6.441,1.519,9.063,1.979L548.755,54.02z M545.442,33.823
				c0-6.211-3.22-12.605-9.799-12.605c-6.763,0-10.075,6.257-10.029,12.974c-0.046,6.578,3.589,12.513,9.846,12.513
				C541.854,46.704,545.442,40.908,545.442,33.823z"/>
		</g>
	</g>
	<path fill="none" stroke="#121212" stroke-width="3" stroke-miterlimit="10" d="M434.099,135.363
		c-31.834,11.679-34.276,42.701-34.276,42.701h7.39c0,0-1.723,12.91,0.492,23.152"/>
	<path fill="none" stroke="#121212" stroke-width="3" stroke-miterlimit="10" d="M452.073,136.966c0,0,19.679,6.651,26.875,41.728
		l-3.198,2.16l2.887,6.93"/>
	<polygon fill="#F5D2A0" points="426.958,224.866 417.599,206.147 439.273,206.64 438.781,224.374 	"/>
	<g>
		<g>
			<path fill="#DC8DAF" d="M349.574,342.713c4.187,1.104,8.281,2.347,11.869,3.589c0.645,0.229,1.288,0.46,1.887,0.46
				c7.36,0.275,13.663,5.704,13.663,15.688c0,9.938-6.072,16.332-14.445,16.332c-8.419,0-13.894-6.533-13.894-15.688
				c0-7.959,3.68-13.065,8.833-14.86v-0.184c-3.083-0.782-6.441-1.519-9.063-1.979L349.574,342.713z M352.887,362.909
				c0,6.211,3.22,12.605,9.799,12.605c6.763,0,10.075-6.257,10.029-12.974c0.046-6.578-3.589-12.513-9.846-12.513
				C356.475,350.028,352.887,355.824,352.887,362.909z"/>
		</g>
	</g>
	<path fill="#97CBE2" d="M467.066,267.567c0,0,26.886-9.203,31.812-32.849l2.464-9.853h-18.227c0,0-0.985-11.823,2.463-23.646
		h-55.665c0,0,5.911,9.359,0.492,17.241c0,0-8.095,5.452-8.189,5.775c-0.185,0.629,3.756,23.781,16.071,34.619
		C438.288,258.856,452.495,272.83,467.066,267.567z"/>
	<path fill="#E4AE5C" d="M469.88,292.528c0,0,34.032-6.539,41.758,13.667c0,0,4.16,11.29-13.075,20.8
		c0,0-16.639,9.508-24.365,36.845c0,0-3.565,22.583-39.223,17.233c0,0-27.932-5.94-27.337-28.523c0,0,3.918-19.021-7.132-42.194
		c0,0-20.711-25.912,4.16-27.932c0,0,17.234-4.161,37.44,5.349C442.106,287.772,454.428,292.526,469.88,292.528z"/>
	<path fill="#FAEAAA" d="M439.729,359.087c0,0,16.64-19.018,30.308-19.612c0,0,16.047-25.555-4.159-50.515
		c0,0-7.726-13.668,1.188-21.393c0,0-8.32-13.075-18.422-2.973c0,0,5.941,13.074-2.973,20.801c0,0-35.063,7.131-27.337,46.949
		C418.335,332.345,435.569,341.259,439.729,359.087z"/>
	
		<line fill="none" stroke="#121212" stroke-width="2.6885" stroke-linecap="round" stroke-miterlimit="10" x1="456.963" y1="337.692" x2="457.559" y2="329.82"/>
	
		<line fill="none" stroke="#121212" stroke-width="2.6885" stroke-linecap="round" stroke-miterlimit="10" x1="432.468" y1="334.697" x2="435.292" y2="327.085"/>
	<path fill="#D71F27" d="M458.741,304.183c0,0-5.206,3.533-9.299,1.115l-0.93-1.487c0,0-2.603,1.487-4.276,1.302
		c0,0-4.463-0.745-4.648-4.836C439.588,300.276,453.349,291.909,458.741,304.183z"/>
	<path fill="#FAEAAA" d="M493.953,224.866c0,0,1.971-8.866-0.492-23.152l-19.705,0.492c0,0,3.941,4.925,4.927,23.152
		L493.953,224.866z"/>
	<polyline fill="#4EB194" stroke="#121212" stroke-width="3" stroke-miterlimit="10" points="426.958,201.714 401.835,267.23 
		344.199,245.063 361.441,201.221 	"/>
	<path fill="#FAEAAA" d="M440.751,203.684c0,0-12.808,13.301-33.005,10.838l-8.867-1.478l0.493-2.956c0,0,10.837,0.492,17.241,0
		l3.941-1.478c0,0-13.794-0.985-19.705-5.419l-2.955-0.985l45.319-0.985L440.751,203.684z"/>
	<g>
		<g>
			<path fill="#121212" d="M351.836,344.408c4.187,1.104,8.281,2.347,11.869,3.589c0.645,0.229,1.288,0.46,1.887,0.46
				c7.36,0.275,13.663,5.704,13.663,15.688c0,9.938-6.072,16.332-14.445,16.332c-8.419,0-13.894-6.533-13.894-15.688
				c0-7.959,3.68-13.065,8.833-14.86v-0.184c-3.083-0.782-6.441-1.519-9.063-1.979L351.836,344.408z M355.148,364.604
				c0,6.211,3.22,12.605,9.799,12.605c6.763,0,10.075-6.257,10.029-12.974c0.046-6.578-3.589-12.513-9.846-12.513
				C358.736,351.724,355.148,357.52,355.148,364.604z"/>
		</g>
	</g>
	<path fill="none" stroke="#121212" stroke-width="3" stroke-miterlimit="10" d="M467.066,267.567
		c31.834-11.679,34.276-42.701,34.276-42.701h-7.39c0,0,1.723-12.91-0.492-23.152"/>
	<path fill="none" stroke="#121212" stroke-width="3" stroke-miterlimit="10" d="M449.092,265.965c0,0-19.679-6.651-26.875-41.728
		l3.198-2.16l-2.887-6.93"/>
	
		<line fill="none" stroke="#121212" stroke-width="0.9117" stroke-miterlimit="10" x1="341.146" y1="201.635" x2="559.657" y2="201.635"/>
</g>
<g id="joker">
</g>
<g id="handcard">
</g>
<g id="hand">
	<g>
	</g>
	<g>
	</g>
	<g>
	</g>
	<g>
	</g>
	<g>
	</g>
	<g>
	</g>
	<g>
	</g>
	<g>
	</g>
	<g>
	</g>
	<g>
	</g>
	<g>
	</g>
	<g>
	</g>
	<g>
	</g>
	<g>
	</g>
	<g>
	</g>
</g>
</svg>
