<?xml version="1.0" encoding="utf-8"?>
<!-- Generator: Adobe Illustrator 16.0.0, SVG Export Plug-In . SVG Version: 6.00 Build 0)  -->
<!DOCTYPE svg PUBLIC "-//W3C//DTD SVG 1.1//EN" "http://www.w3.org/Graphics/SVG/1.1/DTD/svg11.dtd">
<svg version="1.1" xmlns="http://www.w3.org/2000/svg" xmlns:xlink="http://www.w3.org/1999/xlink" x="0px" y="0px"
	 width="868.254px" height="1159.333px" viewBox="0 0 868.254 1159.333" enable-background="new 0 0 868.254 1159.333"
	 xml:space="preserve">
<g id="deck">
	<path fill="#7198B8" d="M260.942,392.48c0,10.277-8.059,18.609-18,18.609H21.535c-9.941,0-18-8.332-18-18.609V33.402
		c0-10.277,8.059-18.608,18-18.608h221.407c9.941,0,18,8.331,18,18.608V392.48z"/>
	<path fill="#FFFFFF" stroke="#121212" stroke-width="4" stroke-miterlimit="10" d="M272.223,382.271
		c0,7.827-6.346,14.173-14.173,14.173H28.988c-7.827,0-14.173-6.346-14.173-14.173V16.174C14.815,8.346,21.161,2,28.988,2H258.05
		c7.827,0,14.173,6.346,14.173,14.174V382.271z"/>
	<g>
		<rect x="221.465" y="18.421" fill="none" width="61.081" height="67.685"/>
		<path fill="#45B1C4" d="M224.961,17.91h4.003v14.952h0.138c0.828-1.196,1.656-2.301,2.438-3.312l9.477-11.64h4.969l-11.225,13.158
			l12.099,17.85h-4.738L231.908,33.69l-2.944,3.404v11.823h-4.003V17.91z"/>
	</g>
	<path fill="#FAEAAA" d="M100.308,53.502l15.168,71.373l39.256,10.707l1.785-9.814l22.303-10.705c0,0,13.384-32.118-10.705-62.452
		C144.026,22.275,100.308,53.502,100.308,53.502z"/>
	<path fill="#924C23" d="M111.255,104.846c0,0-46.857-16.779-19.012-53.317c0,0,29.144-47.677,80.848-13.976h-8.982
		c0,0,10.979,3.996,19.962,14.973c0,0-50.904,12.977-77.854,0C106.217,52.525,109.99,88.701,111.255,104.846z"/>
	<path fill="#FAEAAA" d="M110.307,84.27c0,0-12.032-12.35-14.882,1.58c0,0-1.268,15.514,19.312,14.565"/>
	<path fill="#7198B8" d="M149.563,70.338"/>
	<path fill="none" stroke="#121212" stroke-width="3.0713" stroke-linecap="round" stroke-miterlimit="10" d="M139.115,73.819
		c0,0,6.647-1.897,12.663-1.266"/>
	<path fill="none" stroke="#121212" stroke-width="3.0713" stroke-linecap="round" stroke-miterlimit="10" d="M164.761,70.971
		c0,0,4.748-2.215,10.764-1.583"/>
	<polyline fill="#F1CB94" points="158.743,69.388 175.524,83.636 163.811,90.6 159.377,71.604 	"/>
	<path fill="#924C23" d="M106.19,52.608c0,0,11.713,71.552,35.773,51.921c0,0,32.926-26.277,40.208-14.246
		c0,0,6.649,19.945-2.216,34.193c0,0-59.837,13.296-69.335-25.646l-3.798-19.945"/>
	<polygon fill="#FAEAAA" points="115.476,124.875 153.362,146.319 154.628,134.923 	"/>
	<path fill="#45B1C4" d="M114.421,127.008l55.088,75.33h-89.28c0,0-10.446-42.294,17.413-62.98L114.421,127.008z"/>
	<path fill="#45B1C4" d="M160.011,140.936c0,0,22.795,38.465,23.429,61.725h30.394C213.833,202.66,200.22,155.828,160.011,140.936z"
		/>
	<polygon fill="#45B1C4" points="154.628,150.752 149.879,163.762 161.911,174.656 167.927,201.586 185.339,201.586 
		166.026,174.052 165.394,162.854 	"/>
	<path fill="#45B1C4" stroke="#0091B2" stroke-width="3" stroke-miterlimit="10" d="M80.7,201.586c0,0-9.778-39.51,13.274-58.129
		l20.446-16.449l7.042,42.162l16.847,4.432l-9.754,8.869l26.601,19.506"/>
	<path fill="none" stroke="#121212" stroke-width="3.5467" stroke-miterlimit="10" d="M160.011,140.936
		c0,0,37.598,13.6,52.515,61.291"/>
	<path fill="none" stroke="#7AA6CD" stroke-width="0.9971" stroke-miterlimit="10" d="M266.02,379.761
		c0,5.684-4.643,10.292-10.368,10.292h-223.2c-5.726,0-10.368-4.608-10.368-10.292V18.56c0-5.684,4.643-10.292,10.368-10.292h223.2
		c5.726,0,10.368,4.608,10.368,10.292V379.761z"/>
	<g>
		<path fill="#FAEAAA" d="M193.423,351.098l-15.167-71.373L139,269.019l-1.786,9.815l-22.303,10.702
			c0,0-13.383,32.119,10.705,62.454C149.705,382.326,193.423,351.098,193.423,351.098z"/>
		<path fill="#924C23" d="M182.478,299.754c0,0,46.855,16.779,19.011,53.318c0,0-29.144,47.677-80.849,13.977h8.984
			c0,0-10.981-3.996-19.964-14.973c0,0,50.905-12.979,77.854,0C187.515,352.076,183.741,315.899,182.478,299.754z"/>
		<path fill="#FAEAAA" d="M183.425,320.332c0,0,12.032,12.348,14.881-1.583c0,0,1.269-15.513-19.312-14.563"/>
		<path fill="#7198B8" d="M144.167,334.261"/>
		<path fill="none" stroke="#121212" stroke-width="3.0713" stroke-linecap="round" stroke-miterlimit="10" d="M154.615,330.781
			c0,0-6.646,1.898-12.662,1.266"/>
		<path fill="none" stroke="#121212" stroke-width="3.0713" stroke-linecap="round" stroke-miterlimit="10" d="M128.971,333.631
			c0,0-4.748,2.214-10.763,1.582"/>
		<polyline fill="#F1CB94" points="134.987,335.213 118.208,320.965 129.921,314 134.354,332.995 		"/>
		<path fill="#924C23" d="M187.541,351.992c0,0-11.713-71.552-35.774-51.921c0,0-32.924,26.276-40.208,14.247
			c0,0-6.648-19.945,2.216-34.193c0,0,59.837-13.298,69.335,25.646l3.799,19.944"/>
		<polygon fill="#FAEAAA" points="178.256,279.725 140.368,258.279 139.103,269.68 		"/>
		<path fill="#45B1C4" d="M179.31,277.594l-55.087-75.33h89.28c0,0,10.446,42.293-17.414,62.979L179.31,277.594z"/>
		<path fill="#45B1C4" d="M133.721,263.663c0,0-22.795-38.463-23.429-61.723H79.899C79.899,201.94,93.513,248.774,133.721,263.663z"
			/>
		<polygon fill="#45B1C4" points="139.103,253.848 143.853,240.836 131.821,229.944 125.806,203.014 108.393,203.014 
			127.705,230.549 128.338,241.746 		"/>
		<path fill="#45B1C4" stroke="#0091B2" stroke-width="3" stroke-miterlimit="10" d="M213.03,203.014
			c0,0,9.779,39.511-13.274,58.131l-20.446,16.449l-7.041-42.162l-16.847-4.436l9.753-8.865l-23.878-18.411"/>
		<path fill="none" stroke="#121212" stroke-width="3" stroke-miterlimit="10" d="M133.721,263.663c0,0-37.598-13.598-52.515-61.288
			"/>
	</g>
	<g>
		<rect x="219.465" y="16.772" fill="none" width="61.081" height="67.685"/>
		<path fill="#121212" d="M222.961,16.27h4.003v14.952h0.138c0.828-1.196,1.656-2.301,2.438-3.312l9.477-11.64h4.969l-11.225,13.158
			l12.099,17.85h-4.738L229.908,32.05l-2.944,3.404v11.823h-4.003V16.27z"/>
	</g>
	<g>
		<rect x="7.464" y="310.773" fill="none" width="61.081" height="67.685"/>
		<path fill="#45B1C4" d="M65.048,378.969h-4.003v-14.952h-0.138c-0.828,1.196-1.656,2.301-2.438,3.312l-9.477,11.64h-4.969
			l11.225-13.158l-12.099-17.85h4.738l10.213,15.228l2.944-3.404v-11.823h4.003V378.969z"/>
	</g>
	<g>
		<rect x="9.464" y="312.422" fill="none" width="61.081" height="67.685"/>
		<path fill="#121212" d="M67.048,380.609h-4.003v-14.952h-0.138c-0.828,1.196-1.656,2.301-2.438,3.312l-9.477,11.64h-4.969
			l11.225-13.158l-12.099-17.85h4.738l10.213,15.228l2.944-3.404v-11.823h4.003V380.609z"/>
	</g>
	
		<line fill="none" stroke="#121212" stroke-width="0.9117" stroke-miterlimit="10" x1="34.731" y1="202.279" x2="253.242" y2="202.279"/>
	<path fill="none" stroke="#121212" stroke-width="3" stroke-miterlimit="10" d="M80.7,201.586c0,0-9.179-37.381,11.617-57.021
		l22.104-17.557"/>
	<path fill="none" stroke="#121212" stroke-width="3" stroke-miterlimit="10" d="M213.039,203.11c0,0,9.179,37.381-11.617,57.021
		l-22.104,17.557"/>
</g>
<g id="joker">
</g>
<g id="handcard">
</g>
<g id="hand">
	<g>
	</g>
	<g>
	</g>
	<g>
	</g>
	<g>
	</g>
	<g>
	</g>
	<g>
	</g>
	<g>
	</g>
	<g>
	</g>
	<g>
	</g>
	<g>
	</g>
	<g>
	</g>
	<g>
	</g>
	<g>
	</g>
	<g>
	</g>
	<g>
	</g>
</g>
</svg>
