<?xml version="1.0" encoding="utf-8"?>
<!-- Generator: Adobe Illustrator 16.0.0, SVG Export Plug-In . SVG Version: 6.00 Build 0)  -->
<!DOCTYPE svg PUBLIC "-//W3C//DTD SVG 1.1//EN" "http://www.w3.org/Graphics/SVG/1.1/DTD/svg11.dtd">
<svg version="1.1" xmlns="http://www.w3.org/2000/svg" xmlns:xlink="http://www.w3.org/1999/xlink" x="0px" y="0px"
	 width="868.254px" height="1159.333px" viewBox="0 0 868.254 1159.333" enable-background="new 0 0 868.254 1159.333"
	 xml:space="preserve">
<g id="deck">
</g>
<g id="joker">
	<path fill="#7198B8" d="M570.36,870.09c0,10.277-8.059,18.609-18,18.609H330.953c-9.941,0-18-8.332-18-18.609V511.012
		c0-10.277,8.059-18.608,18-18.608H552.36c9.941,0,18,8.331,18,18.608V870.09z"/>
	<path fill="#FFFFFF" stroke="#121212" stroke-width="4" stroke-miterlimit="10" d="M582.856,858.496
		c0,7.827-6.346,14.173-14.173,14.173H339.622c-7.827,0-14.173-6.346-14.173-14.173V492.398c0-7.828,6.346-14.174,14.173-14.174
		h229.062c7.827,0,14.173,6.346,14.173,14.174V858.496z"/>
	<path fill="none" stroke="#ABD290" stroke-width="0.9971" stroke-miterlimit="10" d="M575.748,855.2
		c0,5.684-4.643,10.292-10.368,10.292h-223.2c-5.726,0-10.368-4.608-10.368-10.292V493.999c0-5.684,4.643-10.292,10.368-10.292
		h223.2c5.726,0,10.368,4.608,10.368,10.292V855.2z"/>
	
		<line fill="none" stroke="#121212" stroke-width="0.7914" stroke-miterlimit="10" x1="552.884" y1="848.207" x2="363.193" y2="848.207"/>
	<path fill="#7FC07B" d="M367.111,604.802c0,0,22.206-17.131,47.584-11.421c0,0,18.398,5.075,23.475,34.261
		c0,0,5.076-61.543,76.135-53.929c0,0-41.24,17.765-41.875,52.659c0,0,58.37-13.324,60.908,48.854c0,0-45.682-40.605-53.295-13.324
		l0.635,10.151l-68.52-1.269c0,0,10.784-28.551-10.787-55.197c0,0-30.453,0-44.41-1.904L367.111,604.802z"/>
	<path fill="#CF4729" d="M434.363,668.881c0,0,5.709-95.802,78.037-94.533c0,0-57.735,17.13-49.487,95.802L434.363,668.881z"/>
	<path fill="#CF4729" d="M360.133,612.414l50.756-6.345c0,0,24.743,15.861,20.937,61.543h-19.033c0,0,5.71-30.455-9.517-50.757
		L360.133,612.414z"/>
	<path fill="#CF4729" d="M469.258,670.149c0,0-0.635-26.014,16.496-25.378c0,0,19.668-0.634,44.411,28.551
		c0,0-30.453-27.282-47.584-20.938c0,0-5.71,4.441-5.075,17.13L469.258,670.149z"/>
	<path fill="#FAEAAA" d="M412.158,670.784c0,0-0.937,5.833-1.207,13.934c-0.534,15.941,1.508,40.664,18.336,46.975
		c0,0,2.538,24.109-2.537,29.184c0,0,24.743,63.445,51.391-3.807c0,0-13.958-9.517-13.958-26.646c0,0,21.572-6.345,16.495-58.37
		L412.158,670.784z"/>
	<path fill="#FAEAAA" d="M401.371,679.032c0,0,1.27-11.42,12.689,3.172l-1.269,19.668
		C412.792,701.872,401.371,702.508,401.371,679.032z"/>
	<path fill="#FAEAAA" d="M493.226,679.984c0,0,0.302-11.487-13.004,1.411l-1.427,19.655
		C478.795,701.051,490.021,703.24,493.226,679.984z"/>
	<path fill="#FFFFFF" d="M428.019,758.973l24.744,16.495l25.378-18.398l-9.518,71.693l-27.915-3.807
		C440.708,824.956,423.578,769.759,428.019,758.973z"/>
	<path fill="#466180" d="M429.287,755.166c0,0,1.904,57.735,9.518,91.36h-48.219c0,0-5.71-68.52,14.593-83.746L429.287,755.166z"/>
	<path fill="#466180" d="M473.699,753.897c0,0,6.979,55.831,0.635,92.629h53.928c0,0,1.904-75.498-24.743-86.919
		C503.519,759.607,482.58,757.704,473.699,753.897z"/>
	<polygon fill="#466180" points="452.128,778.007 445.783,793.233 452.763,802.115 451.493,847.161 468.623,847.161 
		457.204,802.115 463.548,788.792 	"/>
	
		<line fill="none" stroke="#121212" stroke-width="3.3632" stroke-linecap="round" stroke-miterlimit="10" x1="429.922" y1="682.204" x2="431.191" y2="691.789"/>
	
		<line fill="none" stroke="#121212" stroke-width="3.3632" stroke-linecap="round" stroke-miterlimit="10" x1="462.433" y1="682.784" x2="460.857" y2="692.333"/>
	<circle fill="#9DBCD9" cx="348.809" cy="618.118" r="6.027"/>
	
		<line fill="none" stroke="#121212" stroke-width="0.8919" stroke-linecap="round" stroke-miterlimit="10" x1="346.316" y1="618.944" x2="351.286" y2="617.306"/>
	
		<line fill="none" stroke="#121212" stroke-width="0.8164" stroke-linecap="round" stroke-miterlimit="10" x1="347.927" y1="615.53" x2="349.683" y2="620.899"/>
	<path fill="none" stroke="#121212" stroke-width="2.6757" stroke-miterlimit="10" d="M412.647,672.315
		c0,0-10.528,61.93,32.204,63.788"/>
	<path fill="none" stroke="#121212" stroke-width="2.6757" stroke-miterlimit="10" d="M429.987,733.626c0,0,0.457,10.877-0.7,21.54
		l-24.108,7.614c0,0-18.076,10.859-14.593,83.746"/>
	<path fill="none" stroke="#121212" stroke-width="2.6757" stroke-miterlimit="10" d="M480.15,674.793
		c0,0,7.433,48.925-22.294,59.452"/>
	<path fill="none" stroke="#121212" stroke-width="2.6757" stroke-miterlimit="10" d="M462.811,731.769
		c0,0,3.817,15.77,10.889,22.129c0,0,16.98,5.119,31.224,6.978c0,0,24.385,9.048,23.339,85.651"/>
	<path fill="none" stroke="#121212" stroke-width="2.6757" stroke-miterlimit="10" d="M436.801,730.53
		c0,0,12.386,14.244,19.197-1.239"/>
	<path fill="none" stroke="#121212" stroke-width="2.6757" stroke-miterlimit="10" d="M410.17,678.509c0,0-10.527-9.908-9.289,6.193
		c0,0,2.478,15.482,11.147,14.243"/>
	<path fill="none" stroke="#121212" stroke-width="2.6757" stroke-miterlimit="10" d="M480.222,681.396c0,0,7.361-8.46,11.077-4.125
		c0,0,5.572,13.624-10.529,23.533"/>
	<g>
		
			<ellipse transform="matrix(0.9996 -0.0275 0.0275 0.9996 -16.1019 12.5161)" fill="none" cx="447.306" cy="592.072" rx="94.134" ry="50.205"/>
		<path fill="#C6E0B6" d="M385.468,532.575l2.502-1.009l5.23,12.964c2.076,5.145,0.184,7.746-3.15,9.091
			c-0.92,0.371-2.121,0.622-2.857,0.619l-0.451-2.191c0.6-0.008,1.416-0.137,2.25-0.474c2.242-0.903,3.158-2.443,1.627-6.237
			L385.468,532.575z"/>
		<path fill="#C6E0B6" d="M416.282,534.035c1.766,6.971-1.537,11.738-6.705,13.047c-5.348,1.353-10.152-1.843-11.703-7.972
			c-1.629-6.43,1.305-11.647,6.713-13.017C410.114,524.694,414.763,528.026,416.282,534.035z M400.651,538.342
			c1.096,4.328,4.42,7.61,8.537,6.568c4.146-1.05,5.523-5.458,4.359-10.056c-1.018-4.025-4.186-7.699-8.541-6.597
			C400.679,529.353,399.526,533.896,400.651,538.342z"/>
		<path fill="#C6E0B6" d="M421.604,522.93l2.678-0.318l1.188,10.003l0.092-0.011c0.459-0.866,0.926-1.671,1.367-2.41l5.416-8.541
			l3.326-0.394l-6.467,9.695l9.514,10.98l-3.17,0.376l-8.043-9.376l-1.699,2.512l0.938,7.91l-2.678,0.317L421.604,522.93z"/>
		<path fill="#C6E0B6" d="M455.655,531.921l-8.121,0.036l0.031,7.532l9.053-0.039l0.01,2.263l-11.748,0.051l-0.092-20.892
			l11.283-0.051l0.01,2.265l-8.586,0.036l0.029,6.603l8.121-0.035L455.655,531.921z"/>
		<path fill="#C6E0B6" d="M466.474,521.645c1.387-0.124,3.344-0.06,5.193,0.148c2.865,0.324,4.654,1.055,5.816,2.372
			c0.943,1.042,1.369,2.525,1.188,4.127c-0.309,2.742-2.238,4.365-4.51,4.858l-0.01,0.092c1.539,0.735,2.328,2.322,2.578,4.534
			c0.352,2.973,0.617,5.03,0.959,5.879l-2.773-0.312c-0.271-0.624-0.533-2.463-0.826-5.115c-0.293-2.935-1.281-4.14-3.705-4.506
			l-2.527-0.285l-1.012,8.997l-2.682-0.303L466.474,521.645z M468.087,531.404l2.742,0.31c2.865,0.323,4.859-1.044,5.127-3.416
			c0.303-2.68-1.506-4.068-4.338-4.42c-1.293-0.146-2.23-0.126-2.676-0.052L468.087,531.404z"/>
	</g>
	<g>
		
			<ellipse transform="matrix(0.9996 -0.0275 0.0275 0.9996 -16.067 12.4884)" fill="none" cx="446.315" cy="590.788" rx="94.134" ry="50.205"/>
		<path fill="#121212" d="M384.478,531.291l2.502-1.009l5.23,12.964c2.076,5.145,0.184,7.746-3.15,9.091
			c-0.92,0.371-2.121,0.622-2.857,0.619l-0.451-2.191c0.6-0.008,1.416-0.137,2.25-0.474c2.242-0.903,3.158-2.443,1.627-6.237
			L384.478,531.291z"/>
		<path fill="#121212" d="M415.292,532.751c1.766,6.971-1.537,11.738-6.705,13.047c-5.348,1.353-10.152-1.843-11.703-7.972
			c-1.629-6.43,1.305-11.647,6.713-13.017C409.124,523.41,413.772,526.742,415.292,532.751z M399.661,537.058
			c1.096,4.328,4.42,7.61,8.537,6.568c4.146-1.05,5.523-5.458,4.359-10.056c-1.018-4.025-4.186-7.699-8.541-6.597
			C399.688,528.068,398.536,532.611,399.661,537.058z"/>
		<path fill="#121212" d="M420.614,521.646l2.678-0.318l1.188,10.003l0.092-0.011c0.459-0.866,0.926-1.671,1.367-2.41l5.416-8.541
			l3.326-0.394l-6.467,9.695l9.514,10.98l-3.17,0.376l-8.043-9.376l-1.699,2.512l0.938,7.91l-2.678,0.317L420.614,521.646z"/>
		<path fill="#121212" d="M454.665,530.637l-8.121,0.036l0.031,7.532l9.053-0.039l0.01,2.263l-11.748,0.051l-0.092-20.892
			l11.283-0.051l0.01,2.265l-8.586,0.036l0.029,6.603l8.121-0.035L454.665,530.637z"/>
		<path fill="#121212" d="M465.483,520.36c1.387-0.124,3.344-0.06,5.193,0.148c2.865,0.324,4.654,1.055,5.816,2.372
			c0.943,1.042,1.369,2.525,1.188,4.127c-0.309,2.742-2.238,4.365-4.51,4.858l-0.01,0.092c1.539,0.735,2.328,2.322,2.578,4.534
			c0.352,2.973,0.617,5.03,0.959,5.879l-2.773-0.312c-0.271-0.624-0.533-2.463-0.826-5.115c-0.293-2.935-1.281-4.14-3.705-4.506
			l-2.527-0.285l-1.012,8.997l-2.682-0.303L465.483,520.36z M467.097,530.12l2.742,0.31c2.865,0.323,4.859-1.044,5.127-3.416
			c0.303-2.68-1.506-4.068-4.338-4.42c-1.293-0.146-2.23-0.126-2.676-0.052L467.097,530.12z"/>
	</g>
	<circle fill="#9DBCD9" cx="522.423" cy="572.553" r="6.027"/>
	
		<line fill="none" stroke="#121212" stroke-width="0.8919" stroke-linecap="round" stroke-miterlimit="10" x1="520.382" y1="570.901" x2="524.444" y2="574.197"/>
	
		<line fill="none" stroke="#121212" stroke-width="0.8164" stroke-linecap="round" stroke-miterlimit="10" x1="524.124" y1="570.412" x2="520.554" y2="574.79"/>
	<circle fill="#9DBCD9" cx="538.337" cy="681.485" r="6.027"/>
	
		<line fill="none" stroke="#121212" stroke-width="0.8919" stroke-linecap="round" stroke-miterlimit="10" x1="536.296" y1="679.834" x2="540.358" y2="683.13"/>
	
		<line fill="none" stroke="#121212" stroke-width="0.8164" stroke-linecap="round" stroke-miterlimit="10" x1="540.038" y1="679.345" x2="536.468" y2="683.723"/>
</g>
<g id="handcard">
	
		<path fill="#979A99" stroke="#121212" stroke-width="2.2306" stroke-linecap="round" stroke-linejoin="round" stroke-miterlimit="10" d="
		M532.449,660.443"/>
</g>
<g id="hand">
	
		<path fill="#979A99" stroke="#121212" stroke-width="2.2306" stroke-linecap="round" stroke-linejoin="round" stroke-miterlimit="10" d="
		M532.449,660.443"/>
	<g>
	</g>
	<g>
	</g>
	<g>
	</g>
	<g>
	</g>
	<g>
	</g>
	<g>
	</g>
	<g>
	</g>
	<g>
	</g>
	<g>
	</g>
	<g>
	</g>
	<g>
	</g>
	<g>
	</g>
	<g>
	</g>
	<g>
	</g>
	<g>
	</g>
</g>
</svg>
