<?xml version="1.0" encoding="utf-8"?>
<!-- Generator: Adobe Illustrator 16.0.0, SVG Export Plug-In . SVG Version: 6.00 Build 0)  -->
<!DOCTYPE svg PUBLIC "-//W3C//DTD SVG 1.1//EN" "http://www.w3.org/Graphics/SVG/1.1/DTD/svg11.dtd">
<svg version="1.1" xmlns="http://www.w3.org/2000/svg" xmlns:xlink="http://www.w3.org/1999/xlink" x="0px" y="0px"
	 width="868.254px" height="1159.333px" viewBox="0 0 868.254 1159.333" enable-background="new 0 0 868.254 1159.333"
	 xml:space="preserve">
<g id="deck">
</g>
<g id="joker">
	<circle fill="#9DBCD9" cx="538.337" cy="681.485" r="6.027"/>
	
		<line fill="none" stroke="#121212" stroke-width="0.8919" stroke-linecap="round" stroke-miterlimit="10" x1="536.296" y1="679.834" x2="540.358" y2="683.13"/>
	
		<line fill="none" stroke="#121212" stroke-width="0.8164" stroke-linecap="round" stroke-miterlimit="10" x1="540.038" y1="679.345" x2="536.468" y2="683.723"/>
</g>
<g id="handcard">
	<path fill="#FFFFFF" d="M725.893,1147.785l-109.806-175.69l-59.2-148.953c0,0,18.143-105.031,27.69-106.941
		s94.167-11.924,150.502,16.722c0,0,48.485-4.546,22.728,98.484c0,0-15.21,114.899-5.179,130.186
		c20.052,30.555,67.794,78.296,109.807,137.496L725.893,1147.785z"/>
	<path fill="none" stroke="#121212" stroke-width="4" stroke-linecap="round" stroke-linejoin="round" stroke-miterlimit="10" d="
		M698.716,716.255l46.97,19.697c0,0,30.034,8.26,16.666,63.636c0,0-14.497,127.628-8.769,165.823c0,0,62.064,71.612,112.671,137.496
		"/>
	
		<path fill="#FFFFFF" stroke="#121212" stroke-width="4" stroke-linecap="round" stroke-linejoin="round" stroke-miterlimit="10" d="
		M620.76,715.029c0,0-55.73-29.17-54.662,12.874c0.059,1.687-6.769,39.085-2.527,47.495"/>
	
		<path fill="#FFFFFF" stroke="#121212" stroke-width="4" stroke-linecap="round" stroke-linejoin="round" stroke-miterlimit="10" d="
		M638.436,748.236c-28.738-28.363-17.731-45.129-17.731-45.129c-38.706,5.609-60.269-11.024-60.269-11.024
		c-16.736,14.585-48.472,15.525-48.472,15.525c-41.777,1.194-34.935-22.589-34.935-22.589c18.85-16.547,57.221-37.73,57.221-37.73
		c17.117-18.432,43.938-9.314,43.938-9.314c26.589,1.008,20.843,2.257,56.892-0.508c29.908-2.294,36.364,27.272,36.364,27.272
		c19.516,38.918,37.909,65.937,37.909,65.937s3.263,5.074,10.901,15.578c0,0,16.391,14.088,19.699,32.284"/>
	
		<path fill="none" stroke="#121212" stroke-width="2.2306" stroke-linecap="round" stroke-linejoin="round" stroke-miterlimit="10" d="
		M477.238,684.577c5.699-0.76,17.198,4.038,17.198,4.038c14.392-4.962,20.96-11.791,25.514-16.77
		c3.669-4.008,5.956-9.377,5.956-9.377s3.379-6.482-5.25-6.433"/>
	
		<path fill="#979A99" stroke="#121212" stroke-width="2.2306" stroke-linecap="round" stroke-linejoin="round" stroke-miterlimit="10" d="
		M532.449,660.443"/>
	
		<line fill="#FFFFFF" stroke="#121212" stroke-width="4" stroke-linecap="round" stroke-linejoin="round" stroke-miterlimit="10" x1="637.09" y1="680.688" x2="620.52" y2="703.048"/>
	
		<path fill="#FFFFFF" stroke="#121212" stroke-width="4" stroke-linecap="round" stroke-linejoin="round" stroke-miterlimit="10" d="
		M565.092,667.746c0,0-2.311,16.237-5.416,24.129"/>
	<g>
		
			<line fill="#979A99" stroke="#121212" stroke-width="0.6829" stroke-miterlimit="10" x1="526.713" y1="717.958" x2="525.137" y2="717.393"/>
	</g>
	
		<path fill="#FFFFFF" stroke="#121212" stroke-width="4" stroke-linecap="round" stroke-linejoin="round" stroke-miterlimit="10" d="
		M668.603,750.572c0,0-12.319,3.282-29.451-2.386"/>
	
		<path fill="#FFFFFF" stroke="#121212" stroke-width="4" stroke-linecap="round" stroke-linejoin="round" stroke-miterlimit="10" d="
		M666.746,793.713c5.039,0.085-25.415,0.672-50.834,15.57"/>
	
		<path fill="#FFFFFF" stroke="#121212" stroke-width="4" stroke-linecap="round" stroke-linejoin="round" stroke-miterlimit="10" d="
		M635.123,746.123c0,0-14.474,14.287,0.061,54.102"/>
	
		<path fill="#FFFFFF" stroke="#121212" stroke-width="4" stroke-linecap="round" stroke-linejoin="round" stroke-miterlimit="10" d="
		M618.066,787.596c-1.737,0.255-10.322,6.969-24.592,1.805"/>
	
		<path fill="#FFFFFF" stroke="#121212" stroke-width="4" stroke-linecap="round" stroke-linejoin="round" stroke-miterlimit="10" d="
		M633.133,800.943c0,0-0.945-3.684-15.097-13.643"/>
	
		<path fill="#FFFFFF" stroke="#121212" stroke-width="4" stroke-linecap="round" stroke-linejoin="round" stroke-miterlimit="10" d="
		M618.22,787.689c0,0,1.052-1.924-0.06-5.871"/>
	
		<line fill="#FFFFFF" stroke="#121212" stroke-width="4" stroke-linecap="round" stroke-linejoin="round" stroke-miterlimit="10" x1="626.59" y1="988.328" x2="727.803" y2="1157.333"/>
	
		<path fill="#FFFFFF" stroke="#121212" stroke-width="4" stroke-linecap="round" stroke-linejoin="round" stroke-miterlimit="10" d="
		M595.63,760.458c0,0,8.043,21.626,33.824,23.535"/>
	
		<path fill="#FFFFFF" stroke="#121212" stroke-width="4" stroke-linecap="round" stroke-linejoin="round" stroke-miterlimit="10" d="
		M632.318,824.095c-40.767-19.614-68.541-67.839-68.541-67.839s-29.146-49.85-65.754-50.621
		c-1.063-0.017-35.412,1.146-39.369,35.542c0,0-2.244,27.767,50.887,69.284c0,0,29.019,23.564,50.477,44.332
		c0,0,13.312,14.584,22.119,37.152c0,0-5.198,76.331,59.73,104.021"/>
	
		<path fill="#FFFFFF" stroke="#121212" stroke-width="2.1767" stroke-linecap="round" stroke-linejoin="round" stroke-miterlimit="10" d="
		M464.268,744.845c6.618-24.724,35.303-33.215,35.303-33.215c26.493,14.089,26.38,29.778,26.38,29.778
		c3.3,22.146-20.172,42.654-41.747,28.916C481.492,768.601,461.234,756.185,464.268,744.845z"/>
	
		<path fill="#FFFFFF" stroke="#121212" stroke-width="2.2306" stroke-linecap="round" stroke-linejoin="round" stroke-miterlimit="10" d="
		M558.572,771.641c0,0-25.248,3.894-35.883,31.312"/>
	
		<path fill="#FFFFFF" stroke="#121212" stroke-width="2.2306" stroke-linecap="round" stroke-linejoin="round" stroke-miterlimit="10" d="
		M575.743,787.812c0,0-8.411,21.719-36.411,32.422"/>
	
		<path fill="#FFFFFF" stroke="#121212" stroke-width="2.2306" stroke-linecap="round" stroke-linejoin="round" stroke-miterlimit="10" d="
		M563.389,783.501c0,0-22.156,13.32-30.914,28.119"/>
	
		<path fill="#FFFFFF" stroke="#121212" stroke-width="2.2306" stroke-linecap="round" stroke-linejoin="round" stroke-miterlimit="10" d="
		M523.892,742.434c0,0-26.595,0.538-32.28,26.369"/>
</g>
<g id="hand">
	<g>
	</g>
	<g>
	</g>
	<g>
	</g>
	<g>
	</g>
	<g>
	</g>
	<g>
	</g>
	<g>
	</g>
	<g>
	</g>
	<g>
	</g>
	<g>
	</g>
	<g>
	</g>
	<g>
	</g>
	<g>
	</g>
	<g>
	</g>
	<g>
	</g>
</g>
</svg>
