<?xml version="1.0" encoding="utf-8"?>
<!-- Generator: Adobe Illustrator 16.0.0, SVG Export Plug-In . SVG Version: 6.00 Build 0)  -->
<!DOCTYPE svg PUBLIC "-//W3C//DTD SVG 1.1//EN" "http://www.w3.org/Graphics/SVG/1.1/DTD/svg11.dtd">
<svg version="1.1" xmlns="http://www.w3.org/2000/svg" xmlns:xlink="http://www.w3.org/1999/xlink" x="0px" y="0px"
	 width="868.254px" height="1159.333px" viewBox="0 0 868.254 1159.333" enable-background="new 0 0 868.254 1159.333"
	 xml:space="preserve">
<g id="deck">
</g>
<g id="joker">
</g>
<g id="handcard">
	
		<path fill="#979A99" stroke="#121212" stroke-width="2.2306" stroke-linecap="round" stroke-linejoin="round" stroke-miterlimit="10" d="
		M532.449,660.443"/>
	<g>
		
			<line fill="#979A99" stroke="#121212" stroke-width="0.6829" stroke-miterlimit="10" x1="526.713" y1="717.958" x2="525.137" y2="717.393"/>
	</g>
	
		<path fill="#FFFFFF" stroke="#121212" stroke-width="4" stroke-linecap="round" stroke-linejoin="round" stroke-miterlimit="10" d="
		M632.318,824.095c-40.767-19.614-68.541-67.839-68.541-67.839s-29.146-49.85-65.754-50.621
		c-1.063-0.017-35.412,1.146-39.369,35.542c0,0-2.244,27.767,50.887,69.284c0,0,29.019,23.564,50.477,44.332
		c0,0,13.312,14.584,22.119,37.152c0,0-5.198,76.331,59.73,104.021"/>
	
		<path fill="#FFFFFF" stroke="#121212" stroke-width="2.1767" stroke-linecap="round" stroke-linejoin="round" stroke-miterlimit="10" d="
		M464.268,744.845c6.618-24.724,35.303-33.215,35.303-33.215c26.493,14.089,26.38,29.778,26.38,29.778
		c3.3,22.146-20.172,42.654-41.747,28.916C481.492,768.601,461.234,756.185,464.268,744.845z"/>
	
		<path fill="#FFFFFF" stroke="#121212" stroke-width="2.2306" stroke-linecap="round" stroke-linejoin="round" stroke-miterlimit="10" d="
		M558.572,771.641c0,0-25.248,3.894-35.883,31.312"/>
	
		<path fill="#FFFFFF" stroke="#121212" stroke-width="2.2306" stroke-linecap="round" stroke-linejoin="round" stroke-miterlimit="10" d="
		M575.743,787.812c0,0-8.411,21.719-36.411,32.422"/>
	
		<path fill="#FFFFFF" stroke="#121212" stroke-width="2.2306" stroke-linecap="round" stroke-linejoin="round" stroke-miterlimit="10" d="
		M563.389,783.501c0,0-22.156,13.32-30.914,28.119"/>
	
		<path fill="#FFFFFF" stroke="#121212" stroke-width="2.2306" stroke-linecap="round" stroke-linejoin="round" stroke-miterlimit="10" d="
		M523.892,742.434c0,0-26.595,0.538-32.28,26.369"/>
</g>
<g id="hand">
	<g>
	</g>
	<g>
	</g>
	<g>
	</g>
	<g>
	</g>
	<g>
	</g>
	<g>
	</g>
	<g>
	</g>
	<g>
	</g>
	<g>
	</g>
	<g>
	</g>
	<g>
	</g>
	<g>
	</g>
	<g>
	</g>
	<g>
	</g>
	<g>
	</g>
</g>
</svg>
