<?xml version="1.0" encoding="utf-8"?>
<!-- Generator: Adobe Illustrator 16.0.0, SVG Export Plug-In . SVG Version: 6.00 Build 0)  -->
<!DOCTYPE svg PUBLIC "-//W3C//DTD SVG 1.1//EN" "http://www.w3.org/Graphics/SVG/1.1/DTD/svg11.dtd">
<svg version="1.1" id="Layer_1" xmlns="http://www.w3.org/2000/svg" xmlns:xlink="http://www.w3.org/1999/xlink" x="0px" y="0px"
	 width="1682.213px" height="839.689px" viewBox="0 0 1682.213 839.689" enable-background="new 0 0 1682.213 839.689"
	 xml:space="preserve">
<path fill="#FFFFFF" d="M1450.474,818.089c0,0-132.442-112.771-204.563-230.789c0,0,6.557-9.179-34.094,0
	c0,0-41.962,11.801-146.866-45.896c0,0-86.112-11.354-133.536-6.332c0,0-21.196,14.2-65.781-9.403l-110.787-39.597
	c0,0-43.946-52.194,17.685-82.354c0,0,76.055-26.226,141.62,19.67c0,0,77.367-3.935,131.131-24.915v-9.18c0,0-38.027,0-51.141,6.557
	s-48.519-15.734-53.764-30.159c0,0-77.367-98.349-87.857-107.527c0,0-10.63-35.099,29.435-53.61l74.158-36.869l-18.358-31.472
	c0,0-32.783,15.735-47.207,22.292l-41.961,3.934c0,0-60.32,61.633-135.064,34.095c0,0-73.132-30.58-20.175-55.94
	c0,0,56.892-29.294,89.674-54.209c0,0,15.735-20.981,40.65-24.915L912.84,24.75c0,0,40.649-47.207,89.168-1.312l86.546,93.103
	l60.32-20.98c0,0,39.339-23.604,90.479,76.056c0,0,107.526,224.232,430.107,462.89L1450.474,818.089z"/>
<path fill="none" stroke="#121212" stroke-width="4.3543" stroke-linecap="round" stroke-linejoin="round" stroke-miterlimit="10" d="
	M954.068,168.495l-72.114,36.058c0,0-55.146,29.693-14.848,78.477c0,0,58.985,56.607,76.985,86.607c0,0,24,38,60,22l40-4"/>
<path fill="none" stroke="#121212" stroke-width="4.3543" stroke-linecap="round" stroke-linejoin="round" stroke-miterlimit="10" d="
	M934.979,263.941c0,0,31.815,31.814,84.841,12.726c0,0,8.45,9.154-29.729,40.97"/>
<g>
</g>
<g>
</g>
<g>
</g>
<g>
</g>
<g>
</g>
<g>
</g>
<g>
</g>
<g>
</g>
<g>
</g>
<g>
</g>
<g>
</g>
<g>
</g>
<g>
</g>
<g>
</g>
<g>
</g>
</svg>
