<?xml version="1.0" encoding="utf-8"?>
<!-- Generator: Adobe Illustrator 16.0.0, SVG Export Plug-In . SVG Version: 6.00 Build 0)  -->
<!DOCTYPE svg PUBLIC "-//W3C//DTD SVG 1.1//EN" "http://www.w3.org/Graphics/SVG/1.1/DTD/svg11.dtd">
<svg version="1.1" id="Layer_1" xmlns="http://www.w3.org/2000/svg" xmlns:xlink="http://www.w3.org/1999/xlink" x="0px" y="0px"
	 width="1682.213px" height="839.689px" viewBox="0 0 1682.213 839.689" enable-background="new 0 0 1682.213 839.689"
	 xml:space="preserve">
<path fill="#FFFFFF" d="M956.112,167.683l-18.358-31.472c0,0-32.783,15.735-47.207,22.292l-41.961,3.934
	c0,0-60.32,61.633-135.064,34.095c0,0-73.132-30.58-20.175-55.94c0,0,56.892-29.294,89.674-54.209c0,0,15.735-20.981,40.65-24.915
	L912.84,24.75c0,0,40.649-47.207,89.168-1.312l86.546,93.103l60.32-20.98c0,0,39.339-23.604,90.479,76.056
	c0,0,107.526,224.232,430.107,462.89l-218.987,183.583c0,0-132.442-112.771-204.563-230.789c0,0,6.557-9.179-34.094,0
	c0,0-41.962,11.801-146.866-45.896c0,0-86.112-11.354-133.536-6.332c0,0-21.196,14.2-65.781-9.403l-110.787-39.597
	c0,0-43.946-52.194,17.685-82.354c0,0,76.055-26.226,141.62,19.67c0,0,77.367-3.935,131.131-24.915"/>
<path fill="none" stroke="#121212" stroke-width="3.5099" stroke-linecap="round" stroke-linejoin="round" stroke-miterlimit="10" d="
	M932.179,125.664c0,0,15.673,62.627,92.548,83.592c0,0,19.745,63.679,49.19,82.851"/>
<path fill="none" stroke="#121212" stroke-width="4.3543" stroke-linecap="round" stroke-linejoin="round" stroke-miterlimit="10" d="
	M1060.451,385.186c-39.925,33.312-143.361,37.831-143.361,37.831c-66.1-34.469-116.106-25.758-116.106-25.758
	c-42.929,4.129-55.312,23.941-55.312,23.941s-15.686,41.278,9.175,64.871c0,0,29.626,16.859,116.31,40.8"/>
<path fill="none" stroke="#121212" stroke-width="4.242" stroke-linecap="round" stroke-linejoin="round" stroke-miterlimit="10" d="
	M1087.692,242.73c0,0-46.274,115.821-39.653,150.581"/>
<path fill="none" stroke="#121212" stroke-width="4.242" stroke-linecap="round" stroke-linejoin="round" stroke-miterlimit="10" d="
	M1094.056,114.712c0,0,18.762-4.193,47.728-19.09c0,0,57.935-26.172,100.143,86.385c0,0,160.166,277.629,438.166,457.629"/>
<path fill="none" stroke="#121212" stroke-width="4.1059" stroke-linecap="round" stroke-linejoin="round" stroke-miterlimit="10" d="
	M873.132,527.937c0,0,31.569,19.818,58.282,7.135c0,0,105.229-4.758,138.417,7.135c0,0,101.991,71.346,186.177,33.294"/>
<path fill="none" stroke="#121212" stroke-width="4.3543" stroke-linecap="round" stroke-linejoin="round" stroke-miterlimit="10" d="
	M890.479,524.743c0,0-10.301-26.062,9.443-59.69"/>
<line fill="none" stroke="#121212" stroke-width="4.3543" stroke-linecap="round" stroke-linejoin="round" stroke-miterlimit="10" x1="907.648" y1="482.708" x2="903.355" y2="539.035"/>
<path fill="none" stroke="#121212" stroke-width="4.3543" stroke-linecap="round" stroke-linejoin="round" stroke-miterlimit="10" d="
	M922.242,460.849c0,0,14.593,44.558,0,65.575"/>
<path fill="none" stroke="#121212" stroke-width="3.9801" stroke-linecap="round" stroke-linejoin="round" stroke-miterlimit="10" d="
	M1179.967,191.343c0,0-103.855-77.808-170.168-161.212c0,0-38.811-56.723-95.731-9.105c0,0-86.146,40.243-113.245,47.915
	c0,0-35.826,38.811-107.476,71.65c0,0-47.767,14.926,8.956,50.752c0,0,74.436,38.662,149.271-29.854"/>
<path fill="none" stroke="#121212" stroke-width="3.9144" stroke-linecap="round" stroke-linejoin="round" stroke-miterlimit="10" d="
	M678.116,153.258c0,0,65.938,4.679,100.938-41.381V95.621"/>
<path fill="none" stroke="#121212" stroke-width="3.9801" stroke-linecap="round" stroke-linejoin="round" stroke-miterlimit="10" d="
	M833.146,143.349l12.457,18.141c0,0,50.751,5.971,89.562-23.885"/>
<path fill="none" stroke="#121212" stroke-width="4.3543" stroke-linecap="round" stroke-linejoin="round" stroke-miterlimit="10" d="
	M750.624,417.898c0,0,59.44,4.955,75.951,24.768c0,0,19.813,26.418,5.779,47.882c0,0-5.779,21.465-59.44,4.128"/>
<path fill="none" stroke="#121212" stroke-width="4.3543" stroke-linecap="round" stroke-linejoin="round" stroke-miterlimit="10" d="
	M1021.941,221.52c0,0-8.484,42.421,2.121,53.025c0,0,33.936,16.968,31.814,33.937"/>
<path fill="none" stroke="#121212" stroke-width="4.3543" stroke-linecap="round" stroke-linejoin="round" stroke-miterlimit="10" d="
	M1066.482,361.507c0,0,21.21-16.969,36.057-55.146"/>
<path fill="none" stroke="#121212" stroke-width="4.1059" stroke-linecap="round" stroke-linejoin="round" stroke-miterlimit="10" d="
	M1244.092,581.636c0,0,106,182,244,256"/>
<g>
</g>
<g>
</g>
<g>
</g>
<g>
</g>
<g>
</g>
<g>
</g>
<g>
</g>
<g>
</g>
<g>
</g>
<g>
</g>
<g>
</g>
<g>
</g>
<g>
</g>
<g>
</g>
<g>
</g>
</svg>
