<?xml version="1.0" encoding="utf-8"?>
<!-- Generator: Adobe Illustrator 16.0.0, SVG Export Plug-In . SVG Version: 6.00 Build 0)  -->
<!DOCTYPE svg PUBLIC "-//W3C//DTD SVG 1.1//EN" "http://www.w3.org/Graphics/SVG/1.1/DTD/svg11.dtd">
<svg version="1.1" id="Layer_1" xmlns="http://www.w3.org/2000/svg" xmlns:xlink="http://www.w3.org/1999/xlink" x="0px" y="0px"
	 width="1682.213px" height="839.689px" viewBox="0 0 1682.213 839.689" enable-background="new 0 0 1682.213 839.689"
	 xml:space="preserve">
<path fill="#D7542A" d="M713.329,179.28L419.613,303.341c-15.904,6.718-23.018,24.914-16.3,40.817l39.666,96.645
	c19.47,34.038,33.521,3.612,39.033-5.262c4.646-9.277,12.344-16.939,22.566-21.258c23.113-9.766,49.883,1.453,59.844,25.028
	c9.957,23.579-0.728,50.616-23.844,60.38c-9.803,4.141-20.275,4.502-29.843,1.759l0.306,0.28
	c-42.653-10.062-33.344,15.966-30.248,25.866l33.81,80.043c6.718,15.903,24.901,23.916,40.806,17.198l293.717-124.062
	c15.902-6.718,23.17-25.48,16.453-41.384L754.288,195.912C747.571,180.008,729.233,172.563,713.329,179.28z"/>
<path fill="#D7542A" d="M493.859,200.003c-9.763-23.121,1.437-49.935,25.011-59.888c23.578-9.959,50.605,0.702,60.375,23.822
	c9.764,23.113-1.439,49.923-25.018,59.883C530.653,233.779,503.623,223.114,493.859,200.003z"/>
<path fill="#D7542A" d="M614.575,221.929c0,0-47.611,24.845-33.227-28.307l-67.901,28.009c0,0,54.177,23.513-3.557,45.189
	l84.847,36.562L614.575,221.929z"/>
<path fill="#D7542A" d="M774.542,604.398c9.764,23.122-1.438,49.932-25.012,59.89c-23.577,9.959-50.605-0.705-60.375-23.824
	c-9.762-23.112,1.44-49.924,25.019-59.885C737.749,570.622,764.778,581.288,774.542,604.398z"/>
<path fill="#D7542A" d="M653.825,582.472c0,0,47.613-24.845,33.227,28.308l67.903-28.009c0,0-54.179-23.512,3.554-45.19
	l-84.846-36.562L653.825,582.472z"/>
<path fill="#D7542A" d="M851.667,254.324c23.123-9.765,49.934,1.438,59.89,25.012c9.958,23.577-0.704,50.605-23.823,60.375
	c-23.113,9.762-49.923-1.44-59.885-25.019C817.893,291.117,828.558,264.086,851.667,254.324z"/>
<path fill="#D7542A" d="M829.743,375.04c0,0-24.846-47.611,28.305-33.227l-28.008-67.902c0,0-23.514,54.178-45.189-3.554
	l-36.562,84.845L829.743,375.04z"/>
<g>
	
		<rect x="592.19" y="328.441" transform="matrix(0.9277 -0.3734 0.3734 0.9277 -107.7728 304.5666)" fill="none" width="280.001" height="204"/>
	<path fill="#FFFFFF" d="M591.033,448.821l-2.764-6.865l5.937-2.391c2.134-0.858,3.69-2.348,2.72-4.76l-16.693-41.469
		c-0.972-2.412-3.126-2.407-5.26-1.549l-5.937,2.391l-2.764-6.864l36.366-14.64c13.915-5.602,24.471-2.413,28.691,8.07
		c4.594,11.411-1.591,20.152-14.021,25.156l-14.565,5.863l7.171,17.812c0.971,2.412,3.589,2.221,5.722,1.362l5.938-2.391
		l2.764,6.865L591.033,448.821z M599.979,404.9l8.442-3.398c8.72-3.511,12.275-8.069,9.4-15.212
		c-2.876-7.144-7.782-8.618-17.43-4.734l-8.442,3.398L599.979,404.9z"/>
	<path fill="#FFFFFF" d="M652.907,423.913l-2.764-6.865l5.938-2.391c2.133-0.858,3.689-2.348,2.718-4.76l-16.693-41.469
		c-0.971-2.412-3.125-2.407-5.258-1.549l-5.938,2.391l-2.764-6.864l36.366-14.64c13.916-5.602,24.471-2.413,28.69,8.07
		c4.594,11.411-1.59,20.152-14.021,25.156l-14.565,5.863l7.17,17.812c0.972,2.412,3.59,2.221,5.723,1.362l5.938-2.391l2.764,6.865
		L652.907,423.913z M661.854,379.992l8.442-3.398c8.72-3.511,12.275-8.069,9.399-15.212c-2.875-7.143-7.781-8.618-17.429-4.734
		l-8.442,3.398L661.854,379.992z"/>
	<path fill="#FFFFFF" d="M707.731,401.842l-2.764-6.865c4.916-1.979,7.901-3.936,7.724-8.931l-2.261-56.765l12.988-5.229
		l38.534,42.162c3.426,3.688,6.841,3.068,11.758,1.088l2.764,6.865l-32.284,12.997l-2.764-6.865l7.328-2.95
		c2.135-0.859,2.69-1.622,2.317-2.55c-0.337-0.835-0.859-1.594-1.27-2.077l-6.795-8.045l-21.06,8.478l0.673,10.511
		c0.04,0.632,0.078,1.262,0.414,2.098c0.522,1.298,1.878,1.184,3.641,0.475l7.236-2.913l2.764,6.865L707.731,401.842z
		 M737.554,358.897l-17.071-19.109l-0.186,0.075l1.578,25.345L737.554,358.897z"/>
</g>
<g>
</g>
<g>
</g>
<g>
</g>
<g>
</g>
<g>
</g>
<g>
</g>
<g>
</g>
<g>
</g>
<g>
</g>
<g>
</g>
<g>
</g>
<g>
</g>
<g>
</g>
<g>
</g>
<g>
</g>
</svg>
