<?xml version="1.0" encoding="utf-8"?>
<!-- Generator: Adobe Illustrator 16.0.0, SVG Export Plug-In . SVG Version: 6.00 Build 0)  -->
<!DOCTYPE svg PUBLIC "-//W3C//DTD SVG 1.1//EN" "http://www.w3.org/Graphics/SVG/1.1/DTD/svg11.dtd">
<svg version="1.1" id="Layer_1" xmlns="http://www.w3.org/2000/svg" xmlns:xlink="http://www.w3.org/1999/xlink" x="0px" y="0px"
	 width="1682.213px" height="839.689px" viewBox="0 0 1682.213 839.689" enable-background="new 0 0 1682.213 839.689"
	 xml:space="preserve">
<path fill="#2E367F" d="M363.329,331.28L69.613,455.341c-15.904,6.718-23.018,24.914-16.3,40.817l41.666,98.645
	c24.658,37.822,51.521-1.388,57.033-10.262c4.646-9.277,12.344-16.939,22.566-21.258c23.113-9.766,49.883,1.453,59.844,25.028
	c9.957,23.579-0.728,50.616-23.844,60.38c-9.803,4.141-20.275,4.502-29.843,1.759l0.306,0.28
	c-59.271-13.641-53.344,18.966-50.248,28.866l33.81,80.043c6.718,15.903,24.901,23.916,40.806,17.198l293.717-124.062
	c15.902-6.718,23.17-25.48,16.453-41.384L404.288,347.912C397.571,332.008,379.233,324.563,363.329,331.28z"/>
<path fill="#2E367F" d="M424.542,756.398c9.764,23.122-1.438,49.932-25.012,59.89c-23.577,9.959-50.605-0.705-60.375-23.824
	c-9.762-23.112,1.44-49.924,25.019-59.885C387.749,722.622,414.778,733.288,424.542,756.398z"/>
<path fill="#2E367F" d="M303.825,734.472c0,0,47.613-24.845,33.227,28.308l67.903-28.009c0,0-54.179-23.512,3.554-45.19
	l-84.846-36.562L303.825,734.472z"/>
<rect x="106.677" y="514.903" transform="matrix(0.9212 -0.3891 0.3891 0.9212 -221.6711 119.2948)" fill="#2E367F" width="153.999" height="184"/>
<g>
	<path fill="#FFFFFF" d="M219.706,555.836c-3.103,1.311-3.681,2.735-2.581,5.339l17.384,41.156
		c4.398,10.414-2.262,20.071-13.678,24.894c-9.111,3.849-23.907,5.142-28.602-5.973c-2.453-5.81-1.665-12.041,4.744-14.748
		c3.904-1.649,9.35,0.062,11.084,4.168c2.072,4.907,0.738,9.012-4.084,11.285c3.519,1.344,7.419,0.523,10.725-0.873
		c5.407-2.284,8.455-6.522,6.256-11.729l-17.85-42.258c-1.1-2.604-2.523-3.183-5.629-1.871l-6.609,2.792l-3.13-7.411l35.95-15.185
		l3.13,7.411L219.706,555.836z"/>
	<path fill="#FFFFFF" d="M314.437,546.266c8.418,19.93,0.428,41.24-21.303,50.419s-42.58,0.05-50.998-19.88
		c-8.416-19.926-0.467-41.339,21.264-50.518S306.021,526.34,314.437,546.266z M257.858,570.165
		c6.049,14.322,16.154,25.395,32.279,18.584c15.82-6.683,14.628-21.52,8.578-35.842c-6.047-14.317-15.896-25.618-32.018-18.809
		C250.875,540.782,251.812,555.847,257.858,570.165z"/>
	<path fill="#FFFFFF" d="M330.521,569.803l7.109-3.003c3.104-1.311,3.682-2.735,2.582-5.339L321.474,517.1
		c-1.1-2.604-2.523-3.183-5.627-1.872l-7.109,3.003l-3.131-7.411l37.151-15.692c19.627-8.289,28.517-4.845,32.873,5.47
		c3.722,8.81-0.283,15.813-7.844,20.542l0.083,0.199c9.074-1.709,18.566-1.585,23.387,9.828c4.568,10.816,1.977,20.879-14.647,27.9
		l-42.959,18.146L330.521,569.803z M342.769,528.402l9.615-4.062c7.91-3.341,13.626-7.408,9.904-16.221
		c-3.893-9.213-10.791-7.949-18.703-4.607l-9.613,4.061L342.769,528.402z M355.755,559.145l11.213-4.736
		c8.014-3.385,14.288-7.808,10.017-17.921c-4.23-10.015-11.858-8.796-19.872-5.411l-11.213,4.736L355.755,559.145z"/>
</g>
<path fill="#2E367F" d="M505.667,414.324c23.123-9.765,49.934,1.438,59.89,25.012c9.958,23.577-0.704,50.605-23.823,60.375
	c-23.113,9.762-49.923-1.44-59.885-25.019C471.893,451.117,482.558,424.086,505.667,414.324z"/>
<path fill="#2E367F" d="M483.743,535.04c0,0-24.846-47.611,28.305-33.227l-28.008-67.902c0,0-23.514,54.178-45.189-3.554
	l-36.562,84.845L483.743,535.04z"/>
<path fill="#2E367F" d="M143.859,352.003c-9.763-23.121,1.437-49.935,25.011-59.888c23.578-9.959,50.605,0.702,60.375,23.822
	c9.764,23.113-1.439,49.923-25.018,59.883C180.653,385.779,153.623,375.114,143.859,352.003z"/>
<path fill="#2E367F" d="M264.575,373.929c0,0-47.611,24.845-33.227-28.307l-67.901,28.009c0,0,54.177,23.513-3.557,45.189
	l84.847,36.562L264.575,373.929z"/>
<path fill="#2E367F" d="M63.618,694.707c-23.121,9.764-49.934-1.436-59.887-25.009c-9.959-23.58,0.701-50.607,23.821-60.376
	c23.114-9.763,49.925,1.439,59.884,25.017C97.395,657.915,86.729,684.942,63.618,694.707z"/>
<path fill="#2E367F" d="M85.545,573.99c0,0,24.845,47.612-28.308,33.228l28.01,67.902c0,0,23.512-54.177,45.189,3.557l36.561-84.848
	L85.545,573.99z"/>
<g>
</g>
<g>
</g>
<g>
</g>
<g>
</g>
<g>
</g>
<g>
</g>
<g>
</g>
<g>
</g>
<g>
</g>
<g>
</g>
<g>
</g>
<g>
</g>
<g>
</g>
<g>
</g>
<g>
</g>
</svg>
